<?xml version="1.0" encoding="utf-8"?>
<!-- Generator: Adobe Illustrator 16.0.0, SVG Export Plug-In . SVG Version: 6.00 Build 0)  -->
<!DOCTYPE svg PUBLIC "-//W3C//DTD SVG 1.1//EN" "http://www.w3.org/Graphics/SVG/1.1/DTD/svg11.dtd">
<svg version="1.1" id="Layer_1" xmlns="http://www.w3.org/2000/svg" xmlns:xlink="http://www.w3.org/1999/xlink" x="0px" y="0px"
	 width="239.636px" height="53.025px" viewBox="0 0 239.636 53.025" enable-background="new 0 0 239.636 53.025"
	 xml:space="preserve">
<path fill="#BD8585" d="M16.681,18.649c-0.17,0.727-0.255,1.157-0.255,1.289c0,0.68,0.278,1.317,0.835,1.912
	c0.557,0.595,1.26,0.892,2.11,0.892c0.925,0,1.728-0.302,2.407-0.906c0.68-0.604,1.02-1.369,1.02-2.294
	c0-1.057-0.392-2.029-1.175-2.917c-0.784-0.887-1.855-1.581-3.214-2.082c-1.359-0.5-2.87-0.75-4.531-0.75
	c-2.058,0-3.937,0.368-5.636,1.104s-3.167,1.751-4.404,3.044c-1.237,1.293-2.186,2.761-2.846,4.404C0.33,23.987,0,25.715,0,27.527
	c0,2.228,0.542,4.281,1.628,6.16c1.085,1.879,2.539,3.366,4.361,4.46c1.822,1.095,3.733,1.643,5.735,1.643
	c2.152,0,4.271-0.576,6.358-1.728c2.086-1.151,3.875-2.804,5.367-4.956l-0.991-1.331c-0.831,0.906-1.94,1.647-3.328,2.223
	c-1.388,0.576-2.714,0.864-3.979,0.864c-1.529,0-2.941-0.406-4.234-1.218c-1.293-0.812-2.322-1.949-3.087-3.413
	c-0.765-1.463-1.147-3.091-1.147-4.885c0-1.944,0.326-3.686,0.977-5.225c0.651-1.539,1.553-2.719,2.705-3.54
	c1.151-0.821,2.436-1.232,3.852-1.232c0.755,0,1.397,0.175,1.926,0.524c0.528,0.35,0.793,0.779,0.793,1.289
	C16.936,17.427,16.851,17.922,16.681,18.649z M17.615,18.691c0.17-0.547,0.255-0.981,0.255-1.303c0-0.491-0.208-1.029-0.623-1.614
	c1.473,0.548,2.209,1.341,2.209,2.379c0,0.246-0.042,0.548-0.127,0.906c-0.085,0.359-0.127,0.576-0.127,0.651
	c0,0.963,0.585,1.567,1.756,1.812c-0.755,0.151-1.218,0.227-1.388,0.227c-0.548,0-1.053-0.151-1.515-0.453
	c-0.463-0.302-0.694-0.755-0.694-1.359C17.36,19.654,17.445,19.239,17.615,18.691z M4.46,21c-1.143,2.03-1.713,4.149-1.713,6.358
	c0,1.907,0.472,3.635,1.416,5.183c0.944,1.548,2.218,2.757,3.823,3.625c1.604,0.869,3.37,1.303,5.296,1.303
	c1.51,0,3.502-0.406,5.976-1.218c-2.285,1.699-4.72,2.549-7.307,2.549c-1.775,0-3.526-0.486-5.253-1.458
	c-1.728-0.972-3.12-2.336-4.177-4.092c-1.058-1.756-1.586-3.738-1.586-5.947c0-1.624,0.33-3.224,0.991-4.8
	c0.661-1.576,1.619-2.959,2.875-4.149c1.255-1.189,2.79-2.124,4.602-2.804C7.25,17.153,5.603,18.97,4.46,21z"/>
<path fill="#BD8585" d="M31.056,15.902c0.576-0.368,1.374-0.552,2.393-0.552c1.17,0,2.048,0.331,2.634,0.991
	c0.585,0.661,0.878,1.633,0.878,2.917v4.276c-1.341,0.774-3.049,1.704-5.126,2.79c-2.077,1.086-3.649,1.982-4.715,2.69
	c-1.067,0.708-1.926,1.52-2.577,2.436c-0.651,0.916-0.977,2.025-0.977,3.328c0,1.454,0.533,2.653,1.6,3.597
	c1.066,0.944,2.506,1.416,4.319,1.416c2.549,0,5.126-1.123,7.731-3.37c0.283,1.171,0.774,2.035,1.473,2.591
	c0.698,0.557,1.671,0.835,2.917,0.835c1.076,0,2.006-0.236,2.79-0.708c0.783-0.472,1.638-1.17,2.563-2.096l-1.048-1.218
	c-0.566,0.623-1.048,0.935-1.444,0.935c-0.661,0-0.991-0.576-0.991-1.728V20.646c0-1.473-0.378-2.728-1.133-3.767
	c-0.755-1.038-1.77-1.812-3.044-2.322s-2.648-0.765-4.121-0.765c-2.021,0-3.866,0.297-5.537,0.892s-2.983,1.364-3.937,2.308
	c-0.954,0.944-1.43,1.907-1.43,2.889c0,0.661,0.283,1.242,0.85,1.742c0.566,0.5,1.331,0.75,2.294,0.75c1,0,1.836-0.316,2.506-0.949
	c0.67-0.632,1.005-1.354,1.005-2.167c0-0.415-0.123-0.859-0.368-1.331c-0.246-0.472-0.368-0.746-0.368-0.821
	C30.192,16.671,30.479,16.27,31.056,15.902z M37.527,17.049c-0.246-0.717-0.736-1.265-1.473-1.643
	c1.359,0.151,2.317,0.6,2.875,1.345c0.557,0.746,0.835,2.101,0.835,4.064v12.999c0,1.567,0.236,2.719,0.708,3.455
	c0.472,0.736,1.274,1.189,2.407,1.359c-0.378,0.151-0.878,0.227-1.501,0.227c-1.378,0-2.304-0.542-2.775-1.628
	c-0.472-1.085-0.708-2.733-0.708-4.942V21.099C37.895,19.116,37.772,17.767,37.527,17.049z M33.307,36.363
	c-0.755,0-1.416-0.283-1.982-0.85s-0.85-1.369-0.85-2.407c0-1.548,0.477-2.87,1.43-3.965c0.953-1.095,2.638-2.322,5.055-3.682v9.091
	C35.714,35.759,34.497,36.363,33.307,36.363L33.307,36.363z M29.314,38.799c-1.189,0-2.29-0.382-3.299-1.147
	c-1.01-0.765-1.515-1.723-1.515-2.875c0-1.265,0.42-2.36,1.26-3.285c0.84-0.925,2.025-1.831,3.554-2.719
	c-1.001,1.058-1.751,2.016-2.251,2.875c-0.5,0.859-0.75,1.77-0.75,2.733c0,1.322,0.514,2.332,1.543,3.03
	c1.029,0.699,2.402,1.048,4.121,1.048C31.353,38.686,30.465,38.799,29.314,38.799L29.314,38.799z M27.162,21.382
	c-0.529,0-0.987-0.165-1.374-0.496c-0.387-0.33-0.581-0.684-0.581-1.062c0-0.85,0.358-1.614,1.076-2.294
	c0.717-0.68,1.746-1.359,3.087-2.039c-0.793,0.869-1.35,1.534-1.671,1.997c-0.321,0.463-0.481,0.987-0.481,1.572
	c0,0.435,0.179,0.812,0.538,1.133c0.358,0.321,0.878,0.453,1.558,0.396C28.785,21.118,28.068,21.382,27.162,21.382L27.162,21.382z"
	/>
<path fill="#BD8585" d="M81.425,16.114c1.51,0,2.535,0.543,3.073,1.628c0.538,1.086,0.807,2.61,0.807,4.574v12.178
	c0,1.095-0.231,1.865-0.694,2.308c-0.463,0.444-1.223,0.666-2.28,0.666h-0.68v1.558h13.735v-1.558c-0.925,0-1.647-0.094-2.167-0.283
	c-0.52-0.188-0.888-0.472-1.104-0.85c-0.217-0.377-0.326-0.916-0.326-1.614V21.863c0-1.774-0.326-3.275-0.977-4.503
	c-0.651-1.227-1.572-2.128-2.761-2.705c-1.189-0.576-2.587-0.864-4.191-0.864c-1.737,0-3.403,0.354-4.999,1.062
	c-1.596,0.708-3.196,1.751-4.8,3.129c-0.416-0.887-1.01-1.647-1.784-2.28c-0.774-0.632-1.647-1.109-2.62-1.43
	c-0.973-0.321-1.968-0.481-2.988-0.481c-1.511,0-3.054,0.331-4.63,0.991c-1.577,0.661-3.12,1.624-4.63,2.889v-3.88h-0.935
	l-9.176,2.917v0.963c1.473,0.566,2.431,1.199,2.875,1.897c0.443,0.699,0.666,1.728,0.666,3.087v11.555
	c0,0.793-0.076,1.43-0.227,1.912c-0.151,0.481-0.477,0.826-0.977,1.034c-0.5,0.208-1.213,0.312-2.138,0.312h-0.368v1.558h13.934
	v-1.558c-1.246,0-2.167-0.179-2.761-0.538c-0.595-0.358-0.892-1.095-0.892-2.209V19.598c0.963-1,2.091-1.831,3.384-2.492
	c1.293-0.661,2.421-0.991,3.384-0.991c2.605,0,3.908,1.879,3.908,5.636v12.461c0,1.246-0.227,2.115-0.68,2.605
	c-0.453,0.491-1.426,0.708-2.917,0.651v1.558h13.622v-1.558c-0.246-0.019-0.472-0.033-0.68-0.042
	c-0.208-0.009-0.463-0.014-0.765-0.014c-0.755-0.019-1.293-0.312-1.614-0.878c-0.321-0.566-0.481-1.359-0.481-2.379V19.598
	C77.064,17.275,79.348,16.114,81.425,16.114L81.425,16.114z M70.352,36.519c-0.34,0.651-1.218,1.024-2.634,1.119
	c0.491-0.377,0.826-0.779,1.005-1.204c0.179-0.425,0.269-1.034,0.269-1.827V22.26c0-1.963-0.194-3.441-0.581-4.432
	c-0.387-0.991-1.251-1.694-2.591-2.11c1.624-0.17,2.87,0.17,3.738,1.02c0.868,0.85,1.303,2.209,1.303,4.078v12.518
	C70.862,34.806,70.692,35.868,70.352,36.519z M87.896,35.684c-0.123,0.604-0.425,1.095-0.906,1.473
	c-0.481,0.378-1.185,0.557-2.11,0.538c0.642-0.472,1.029-0.986,1.161-1.543c0.132-0.557,0.198-1.572,0.198-3.044V21.155
	c0-1.586-0.236-2.771-0.708-3.554c-0.472-0.783-1.397-1.411-2.775-1.883c1.491-0.019,2.624,0.198,3.398,0.651
	c0.774,0.453,1.289,1.062,1.543,1.827s0.382,1.695,0.382,2.79V33.56C88.081,34.372,88.019,35.08,87.896,35.684z M53.19,36.477
	c-0.34,0.642-1.199,0.973-2.577,0.991c0.528-0.415,0.854-0.896,0.977-1.444c0.123-0.547,0.184-1.576,0.184-3.087v-9.629
	c0-1.643-0.166-2.893-0.496-3.752c-0.331-0.859-1.072-1.487-2.223-1.883c0.68-0.075,1.123-0.113,1.331-0.113
	c0.981,0,1.779,0.35,2.393,1.048c0.613,0.699,0.92,1.747,0.92,3.144v12.008C53.7,34.929,53.53,35.835,53.19,36.477z"/>
<path fill="#BD8585" d="M103.971,13.792l-9.147,1.926v1.161c1.359,0.453,2.327,1.053,2.903,1.798
	c0.576,0.746,0.864,1.846,0.864,3.299v26.791c0,0.717-0.123,1.255-0.368,1.614c-0.246,0.358-0.604,0.585-1.076,0.68
	c-0.472,0.094-1.189,0.16-2.152,0.198v1.614h14.783v-1.558h-1.444c-0.888,0-1.577-0.104-2.067-0.312
	c-0.491-0.208-0.812-0.534-0.963-0.977c-0.151-0.444-0.227-1.034-0.227-1.77v-9.799c1.963,0.85,3.937,1.274,5.919,1.274
	c2.53,0,4.819-0.562,6.868-1.685c2.048-1.123,3.658-2.686,4.829-4.687c1.17-2.001,1.756-4.248,1.756-6.74
	c0-1.793-0.316-3.493-0.949-5.098c-0.633-1.604-1.473-2.974-2.521-4.106s-2.266-2.02-3.653-2.662
	c-1.388-0.642-2.818-0.963-4.291-0.963c-1.529,0-2.908,0.269-4.135,0.807c-1.228,0.538-2.502,1.298-3.823,2.28v-3.087H103.971z
	 M100.799,50.438c-0.378,0.623-1.208,0.991-2.492,1.104c0.472-0.359,0.793-0.76,0.963-1.204c0.17-0.444,0.255-1.043,0.255-1.798
	V21.863c0-1.435-0.184-2.478-0.552-3.129s-1.081-1.27-2.138-1.855c1.624-0.132,2.785,0.198,3.483,0.991
	c0.698,0.793,1.048,2.067,1.048,3.823v25.573C101.365,48.758,101.176,49.815,100.799,50.438z M110.173,16.879
	c1.34,0,2.553,0.396,3.639,1.189c1.085,0.793,1.94,1.978,2.563,3.554c0.623,1.577,0.935,3.507,0.935,5.792
	c0,2.341-0.326,4.319-0.977,5.933s-1.515,2.818-2.591,3.611s-2.266,1.189-3.568,1.189c-1.605,0-3.304-0.831-5.098-2.492V18.946
	C106.831,17.568,108.53,16.879,110.173,16.879L110.173,16.879z M112.269,15.35c0.812,0,1.666,0.212,2.563,0.637
	c0.896,0.425,1.742,1.09,2.535,1.997s1.449,2.148,1.968,3.724c0.519,1.577,0.779,3.422,0.779,5.537c0,1.756-0.222,3.342-0.666,4.758
	c-0.444,1.416-1.1,2.596-1.968,3.54c-0.869,0.944-1.964,1.662-3.285,2.152c1.265-1.038,2.256-2.312,2.974-3.823
	c0.717-1.51,1.076-3.663,1.076-6.457c0-3.625-0.727-6.433-2.181-8.425c-1.454-1.992-3.38-2.988-5.777-2.988h-0.68
	C110.569,15.567,111.457,15.35,112.269,15.35L112.269,15.35z"/>
<path fill="#BD8585" d="M132.846,15.902c0.576-0.368,1.374-0.552,2.393-0.552c1.17,0,2.048,0.331,2.634,0.991
	c0.585,0.661,0.878,1.633,0.878,2.917v4.276c-1.341,0.774-3.049,1.704-5.126,2.79c-2.077,1.086-3.648,1.982-4.715,2.69
	c-1.067,0.708-1.926,1.52-2.577,2.436c-0.651,0.916-0.977,2.025-0.977,3.328c0,1.454,0.533,2.653,1.6,3.597
	c1.066,0.944,2.506,1.416,4.319,1.416c2.549,0,5.125-1.123,7.731-3.37c0.283,1.171,0.774,2.035,1.473,2.591
	c0.698,0.557,1.671,0.835,2.917,0.835c1.077,0,2.006-0.236,2.79-0.708c0.783-0.472,1.638-1.17,2.563-2.096l-1.048-1.218
	c-0.566,0.623-1.047,0.935-1.444,0.935c-0.661,0-0.991-0.576-0.991-1.728V20.646c0-1.473-0.378-2.728-1.133-3.767
	c-0.755-1.038-1.77-1.812-3.045-2.322c-1.274-0.51-2.647-0.765-4.121-0.765c-2.02,0-3.865,0.297-5.536,0.892
	s-2.983,1.364-3.937,2.308c-0.954,0.944-1.43,1.907-1.43,2.889c0,0.661,0.283,1.242,0.85,1.742c0.566,0.5,1.331,0.75,2.294,0.75
	c1,0,1.836-0.316,2.506-0.949c0.67-0.632,1.005-1.354,1.005-2.167c0-0.415-0.123-0.859-0.369-1.331
	c-0.245-0.472-0.368-0.746-0.368-0.821C131.982,16.671,132.27,16.27,132.846,15.902z M139.316,17.049
	c-0.245-0.717-0.736-1.265-1.472-1.643c1.359,0.151,2.317,0.6,2.875,1.345c0.557,0.746,0.835,2.101,0.835,4.064v12.999
	c0,1.567,0.236,2.719,0.708,3.455c0.472,0.736,1.274,1.189,2.408,1.359c-0.378,0.151-0.878,0.227-1.501,0.227
	c-1.378,0-2.304-0.542-2.775-1.628c-0.472-1.085-0.708-2.733-0.708-4.942V21.099C139.685,19.116,139.562,17.767,139.316,17.049z
	 M135.097,36.363c-0.755,0-1.416-0.283-1.982-0.85s-0.85-1.369-0.85-2.407c0-1.548,0.476-2.87,1.43-3.965
	c0.954-1.095,2.639-2.322,5.056-3.682v9.091C137.504,35.759,136.286,36.363,135.097,36.363L135.097,36.363z M131.104,38.799
	c-1.189,0-2.289-0.382-3.299-1.147c-1.01-0.765-1.515-1.723-1.515-2.875c0-1.265,0.42-2.36,1.26-3.285
	c0.84-0.925,2.024-1.831,3.554-2.719c-1,1.058-1.751,2.016-2.251,2.875c-0.5,0.859-0.75,1.77-0.75,2.733
	c0,1.322,0.514,2.332,1.543,3.03c1.029,0.699,2.402,1.048,4.12,1.048C133.143,38.686,132.255,38.799,131.104,38.799L131.104,38.799z
	 M128.952,21.382c-0.529,0-0.987-0.165-1.374-0.496c-0.387-0.33-0.581-0.684-0.581-1.062c0-0.85,0.358-1.614,1.076-2.294
	c0.717-0.68,1.746-1.359,3.087-2.039c-0.793,0.869-1.35,1.534-1.671,1.997c-0.321,0.463-0.482,0.987-0.482,1.572
	c0,0.435,0.18,0.812,0.539,1.133c0.358,0.321,0.877,0.453,1.557,0.396C130.575,21.118,129.857,21.382,128.952,21.382L128.952,21.382
	z"/>
<path fill="#BD8585" d="M157.5,13.792l-8.468,2.917v0.906c1,0.34,1.774,0.859,2.322,1.558c0.547,0.699,0.821,1.454,0.821,2.266
	v12.999c0,1.114-0.231,1.888-0.694,2.322c-0.463,0.435-1.279,0.67-2.45,0.708v1.558h13.226v-1.558
	c-1.039-0.038-1.808-0.142-2.308-0.312c-0.5-0.17-0.84-0.477-1.02-0.92c-0.18-0.443-0.269-1.1-0.269-1.968V13.792H157.5z
	 M150.732,17.445c0.264-0.038,0.613-0.057,1.048-0.057c0.944,0,1.708,0.326,2.294,0.977c0.585,0.651,0.878,1.582,0.878,2.79v13.282
	c0,1.076-0.241,1.851-0.722,2.322c-0.481,0.472-1.242,0.708-2.28,0.708c0.774-0.566,1.161-1.397,1.161-2.492V21.523
	C153.111,19.636,152.318,18.276,150.732,17.445L150.732,17.445z M153.21,0.524c-0.614,0.35-1.095,0.831-1.444,1.444
	c-0.35,0.614-0.524,1.27-0.524,1.968c0,1.076,0.387,2.011,1.161,2.804c0.774,0.793,1.699,1.189,2.775,1.189
	c0.717,0,1.388-0.179,2.011-0.538c0.623-0.358,1.114-0.845,1.473-1.458c0.358-0.613,0.538-1.279,0.538-1.997
	c0-0.717-0.18-1.378-0.538-1.982c-0.359-0.604-0.85-1.081-1.473-1.43C156.566,0.175,155.896,0,155.178,0
	C154.479,0,153.823,0.175,153.21,0.524z M153.904,3.937c0,0.661,0.142,1.204,0.425,1.628s0.727,0.911,1.331,1.458
	c-1.152-0.057-2.021-0.373-2.605-0.949c-0.585-0.576-0.878-1.307-0.878-2.195c0-0.925,0.302-1.652,0.906-2.181
	c0.604-0.528,1.463-0.793,2.577-0.793C154.489,1.699,153.904,2.709,153.904,3.937L153.904,3.937z"/>
<path fill="#BD8585" d="M170.105,31.266c-2.077,0.774-3.682,1.728-4.814,2.86s-1.699,2.36-1.699,3.682
	c0,2.02,1.218,3.568,3.653,4.645c-1.794,0.113-3.158,0.642-4.092,1.586c-0.935,0.944-1.402,2.02-1.402,3.229
	c0,1.718,0.953,3.096,2.86,4.135c1.907,1.038,4.682,1.558,8.326,1.558c2.492,0,4.687-0.231,6.584-0.694
	c1.897-0.463,3.445-1.1,4.645-1.912c1.199-0.812,2.091-1.78,2.676-2.903c0.585-1.124,0.878-2.346,0.878-3.667
	c0-2.474-0.92-4.234-2.761-5.282s-4.612-1.572-8.312-1.572c-1.076,0-1.931,0.005-2.563,0.014c-0.633,0.01-1.345,0.024-2.138,0.042
	c-2.36,0-3.54-0.689-3.54-2.067c0-1.076,0.604-1.812,1.812-2.209c1.208-0.396,2.889-0.67,5.041-0.821
	c1.057-0.057,2.025-0.165,2.903-0.326c0.878-0.16,1.789-0.477,2.733-0.949c1.454-0.755,2.61-1.803,3.469-3.144
	c0.859-1.34,1.289-2.766,1.289-4.276c0-1.68-0.623-3.36-1.869-5.041c0.434-0.283,0.802-0.425,1.104-0.425
	c0.34,0,0.642,0.109,0.906,0.326c0.264,0.217,0.59,0.548,0.977,0.991c0.387,0.444,0.746,0.774,1.076,0.991
	c0.33,0.217,0.694,0.326,1.09,0.326c0.661,0,1.204-0.236,1.628-0.708c0.425-0.472,0.637-1.01,0.637-1.614
	c0-0.887-0.35-1.624-1.048-2.209c-0.699-0.585-1.586-0.878-2.662-0.878c-0.774,0-1.577,0.184-2.407,0.552
	c-0.831,0.368-1.596,0.883-2.294,1.543c-2.568-2.171-5.561-3.257-8.978-3.257c-3.153,0-5.692,0.864-7.618,2.591
	s-2.889,3.819-2.889,6.273C163.309,26.451,165.574,29.321,170.105,31.266L170.105,31.266z M181.462,23.081
	c0,3.757-1.548,6.155-4.645,7.193c1.907-1.643,2.86-4.182,2.86-7.618c0-1.888-0.279-3.417-0.835-4.588
	c-0.557-1.17-1.458-2.171-2.705-3.002C179.687,15.822,181.462,18.493,181.462,23.081L181.462,23.081z M177.596,28.193
	c-0.765,1.35-1.761,2.025-2.988,2.025c-1.359,0-2.44-0.698-3.243-2.096c-0.803-1.397-1.204-3.275-1.204-5.636
	c0-2.114,0.396-3.833,1.189-5.154c0.793-1.321,1.803-1.982,3.03-1.982c1.208,0,2.237,0.633,3.087,1.897
	c0.85,1.265,1.274,3.012,1.274,5.239C178.743,24.941,178.361,26.843,177.596,28.193z M167.727,18.295
	c-1.02,1.435-1.529,2.936-1.529,4.503c0,1.454,0.429,2.856,1.289,4.206c0.859,1.35,2.157,2.535,3.894,3.554
	c-2.398-0.623-4.187-1.643-5.367-3.059c-1.18-1.416-1.77-3.049-1.77-4.899c0-1.303,0.335-2.521,1.005-3.653
	c0.67-1.133,1.628-2.082,2.875-2.846s2.643-1.241,4.191-1.43C170.275,15.652,168.746,16.86,167.727,18.295z M166.636,35.075
	c-0.293,0.538-0.439,1.119-0.439,1.742c0,0.906,0.25,1.605,0.75,2.096c0.5,0.491,1.236,0.831,2.209,1.02
	c0.972,0.188,2.346,0.307,4.121,0.354c1.774,0.047,3.559,0.089,5.353,0.127c2.492,0.057,4.371,0.467,5.636,1.232
	c1.265,0.765,1.897,1.864,1.897,3.299c0,0.68-0.255,1.473-0.765,2.379c0.075-0.453,0.113-0.746,0.113-0.878
	c0-1.416-0.571-2.431-1.713-3.044c-1.143-0.614-2.436-0.963-3.88-1.048s-4.272-0.146-8.482-0.184
	c-2.096-0.019-3.771-0.43-5.027-1.232c-1.256-0.803-1.883-1.808-1.883-3.016c0-0.963,0.283-1.803,0.85-2.521
	c0.566-0.717,1.406-1.425,2.521-2.124C167.349,33.938,166.929,34.537,166.636,35.075z M168.803,50.467
	c-1.228-0.755-1.841-1.766-1.841-3.03c0-1.095,0.387-1.964,1.161-2.605c0.774-0.642,1.878-1.086,3.313-1.331
	c1.435-0.246,3.285-0.368,5.551-0.368c5.079,0,7.618,1.104,7.618,3.313c0,1-0.435,1.902-1.303,2.705
	c-0.869,0.802-2.101,1.411-3.696,1.827c-1.596,0.415-3.488,0.623-5.678,0.623C171.738,51.6,170.03,51.222,168.803,50.467z
	 M164.017,49.858c-0.888-0.784-1.331-1.667-1.331-2.648c0-1.152,0.514-2.096,1.543-2.832c1.029-0.736,2.525-1.189,4.489-1.359
	c-1.359,0.623-2.389,1.255-3.087,1.897c-0.699,0.642-1.048,1.444-1.048,2.407c0,1.68,1.104,3.105,3.313,4.276
	C166.197,51.222,164.904,50.641,164.017,49.858z M190.27,17.983c0,0.321-0.113,0.633-0.34,0.935
	c-0.227,0.302-0.557,0.453-0.991,0.453c-0.566,0-1.161-0.406-1.784-1.218c-0.831-0.925-1.492-1.388-1.982-1.388
	c-0.227,0-0.416,0.019-0.566,0.057c0.151-0.057,0.316-0.123,0.496-0.198c0.179-0.075,0.363-0.113,0.552-0.113
	c0.472,0,1.057,0.194,1.756,0.581c0.698,0.387,1.227,0.581,1.586,0.581c0.472,0,0.821-0.17,1.048-0.51
	C190.194,17.464,190.27,17.738,190.27,17.983L190.27,17.983z"/>
<path fill="#BD8585" d="M198.399,13.792l-8.949,2.832v0.935c1.265,0.396,2.18,0.977,2.747,1.742c0.567,0.765,0.85,1.77,0.85,3.016
	v12.546c0,1.114-0.312,1.827-0.935,2.138s-1.51,0.467-2.662,0.467v1.558h13.678v-1.558c-0.906-0.038-1.6-0.113-2.082-0.227
	c-0.481-0.113-0.863-0.396-1.146-0.85s-0.425-1.104-0.425-1.954V19.484c1.246-1.133,2.383-1.978,3.413-2.535
	c1.029-0.557,2.081-0.835,3.158-0.835c0.868,0,1.604,0.18,2.209,0.538c0.604,0.359,1.062,0.883,1.374,1.572
	c0.311,0.689,0.467,1.534,0.467,2.535v13.679c0,1.246-0.279,2.063-0.836,2.45c-0.557,0.387-1.44,0.581-2.648,0.581v1.558h13.651
	v-1.558c-1.19,0-2.077-0.16-2.662-0.481c-0.586-0.321-0.878-1.095-0.878-2.322V21.75c0-5.305-2.671-7.958-8.015-7.958
	c-1.869,0-3.479,0.321-4.828,0.963c-1.35,0.642-2.818,1.577-4.404,2.804v-3.767H198.399z M191.433,17.559
	c0.075,0,0.236-0.019,0.481-0.057c0.246-0.038,0.416-0.057,0.51-0.057c0.887,0,1.666,0.335,2.336,1.005
	c0.67,0.67,1.005,1.478,1.005,2.421v13.509c0,1.888-0.925,2.917-2.775,3.087c0.416-0.453,0.685-0.868,0.807-1.246
	c0.123-0.377,0.184-0.991,0.184-1.841V21.382C193.981,19.607,193.132,18.333,191.433,17.559L191.433,17.559z M210.351,17.29
	c-0.454-0.783-1.19-1.383-2.209-1.798c1.812,0.076,3.077,0.538,3.794,1.388c0.718,0.85,1.077,2.086,1.077,3.71v12.518
	c0,1.454-0.161,2.544-0.482,3.271c-0.321,0.727-0.972,1.09-1.954,1.09h-0.538c0.359-0.377,0.6-0.694,0.722-0.949
	c0.123-0.255,0.199-0.519,0.227-0.793c0.028-0.273,0.042-0.703,0.042-1.289V20.476C211.031,19.135,210.804,18.073,210.351,17.29z"/>
<path fill="#BD8585" d="M229.894,39.79c1.85,0,3.516-0.359,4.999-1.076c1.482-0.717,2.643-1.689,3.483-2.917
	c0.84-1.227,1.26-2.567,1.26-4.021c0-1.246-0.331-2.397-0.991-3.455c-0.661-1.057-1.548-1.878-2.662-2.464
	c-1.775-0.981-3.842-2.001-6.202-3.059c-2.36-1.057-3.908-1.855-4.645-2.393s-1.104-1.27-1.104-2.195
	c0-0.717,0.297-1.374,0.892-1.968s1.345-0.892,2.251-0.892c1.454,0,2.931,0.576,4.432,1.728c1.501,1.152,3.016,2.86,4.545,5.126
	h1.388l-0.283-6.712c-1.473-0.547-2.813-0.967-4.021-1.26c-1.208-0.292-2.511-0.439-3.908-0.439c-2.757,0-4.947,0.708-6.57,2.124
	c-1.624,1.416-2.436,3.182-2.436,5.296c0,3.568,2.596,6.315,7.788,8.241c1.963,0.755,4.012,1.841,6.146,3.257
	c0.566,0.396,0.85,1.114,0.85,2.152c0,0.793-0.378,1.501-1.133,2.124c-0.755,0.623-1.614,0.935-2.577,0.935
	c-1.492,0-3.021-0.646-4.588-1.94c-1.567-1.293-3.068-3.214-4.503-5.763h-1.529v7.42C224.23,39.072,227.27,39.79,229.894,39.79
	L229.894,39.79z M223.918,35.57c0.566,0.642,1.435,1.369,2.605,2.181c-2.19-0.585-3.757-1.085-4.701-1.501v-3.54
	C222.653,33.975,223.352,34.929,223.918,35.57z M236.04,34.607c0-1.284-0.557-2.289-1.671-3.016
	c-1.114-0.727-2.936-1.661-5.466-2.804c-2.53-1.142-4.437-2.27-5.721-3.384c-1.284-1.114-1.926-2.567-1.926-4.361
	c0-0.868,0.146-1.6,0.439-2.195c0.292-0.595,0.684-1.194,1.175-1.798c-0.453,1.001-0.68,1.907-0.68,2.719
	c0,1.341,0.34,2.459,1.02,3.356c0.68,0.897,1.784,1.766,3.313,2.605c1.529,0.84,3.615,1.808,6.259,2.903
	c2.945,1.189,4.418,2.794,4.418,4.814c0,0.661-0.123,1.185-0.368,1.572c-0.246,0.387-0.623,0.817-1.133,1.289
	C235.926,35.646,236.04,35.08,236.04,34.607L236.04,34.607z M232.627,16.836c-0.84-0.651-1.968-1.222-3.384-1.713
	c1.34,0,2.36,0.095,3.059,0.283c0.698,0.189,1.671,0.538,2.917,1.048l0.255,3.257C234.416,18.446,233.467,17.488,232.627,16.836z"/>
</svg>
