<?xml version="1.0" encoding="utf-8"?>
<!-- Generator: Adobe Illustrator 16.0.0, SVG Export Plug-In . SVG Version: 6.00 Build 0)  -->
<!DOCTYPE svg PUBLIC "-//W3C//DTD SVG 1.1//EN" "http://www.w3.org/Graphics/SVG/1.1/DTD/svg11.dtd">
<svg version="1.1" id="Layer_1" xmlns="http://www.w3.org/2000/svg" xmlns:xlink="http://www.w3.org/1999/xlink" x="0px" y="0px"
	 width="234.137px" height="52.873px" viewBox="189.613 369.475 234.137 52.873"
	 enable-background="new 189.613 369.475 234.137 52.873" xml:space="preserve">
<path fill="#B37C3B" d="M198.082,383.267l-8.468,2.917v0.906c1,0.34,1.774,0.859,2.322,1.558c0.547,0.699,0.821,1.454,0.821,2.266
	v12.999c0,1.114-0.231,1.888-0.694,2.321c-0.463,0.436-1.279,0.67-2.45,0.709v1.558h13.226v-1.558
	c-1.039-0.039-1.808-0.143-2.308-0.312s-0.84-0.477-1.02-0.92c-0.18-0.443-0.269-1.1-0.269-1.968v-20.476H198.082L198.082,383.267z
	 M191.313,386.92c0.264-0.038,0.613-0.057,1.048-0.057c0.944,0,1.708,0.326,2.294,0.977c0.585,0.651,0.878,1.582,0.878,2.79v13.282
	c0,1.076-0.241,1.852-0.722,2.322c-0.481,0.472-1.242,0.707-2.28,0.707c0.774-0.565,1.161-1.396,1.161-2.491v-13.452
	C193.692,389.11,192.899,387.751,191.313,386.92L191.313,386.92z M193.792,369.999c-0.614,0.35-1.095,0.831-1.444,1.444
	c-0.35,0.614-0.524,1.27-0.524,1.968c0,1.076,0.387,2.011,1.161,2.804s1.699,1.189,2.775,1.189c0.717,0,1.388-0.179,2.011-0.538
	c0.623-0.358,1.114-0.845,1.473-1.458c0.358-0.613,0.538-1.279,0.538-1.997c0-0.717-0.18-1.378-0.538-1.982
	c-0.359-0.604-0.85-1.081-1.473-1.43s-1.293-0.524-2.011-0.524C195.061,369.475,194.405,369.649,193.792,369.999z M194.485,373.411
	c0,0.661,0.142,1.204,0.425,1.628c0.283,0.424,0.727,0.911,1.331,1.458c-1.152-0.057-2.021-0.373-2.605-0.949
	c-0.585-0.576-0.878-1.307-0.878-2.195c0-0.925,0.302-1.652,0.906-2.181c0.604-0.528,1.463-0.793,2.577-0.793
	C195.07,371.174,194.485,372.184,194.485,373.411L194.485,373.411z"/>
<path fill="#B37C3B" d="M211.445,383.267l-8.949,2.832v0.935c1.265,0.396,2.181,0.977,2.747,1.742c0.566,0.765,0.85,1.77,0.85,3.016
	v12.546c0,1.114-0.312,1.827-0.935,2.139c-0.623,0.311-1.511,0.467-2.662,0.467v1.558h13.679v-1.558
	c-0.906-0.039-1.6-0.113-2.082-0.228c-0.482-0.114-0.864-0.396-1.147-0.85c-0.283-0.454-0.425-1.104-0.425-1.954v-14.953
	c1.246-1.133,2.383-1.978,3.413-2.535c1.029-0.557,2.082-0.835,3.158-0.835c0.868,0,1.604,0.18,2.209,0.538
	c0.604,0.359,1.062,0.883,1.374,1.572c0.312,0.689,0.467,1.534,0.467,2.535v13.679c0,1.246-0.279,2.063-0.835,2.45
	c-0.557,0.387-1.44,0.58-2.648,0.58v1.559h13.65v-1.559c-1.189,0-2.077-0.159-2.662-0.48c-0.585-0.32-0.878-1.095-0.878-2.322
	v-12.914c0-5.305-2.672-7.958-8.015-7.958c-1.869,0-3.479,0.321-4.829,0.963c-1.35,0.642-2.818,1.577-4.404,2.804v-3.767h-1.076
	V383.267z M204.478,387.033c0.075,0,0.236-0.019,0.481-0.057s0.415-0.057,0.51-0.057c0.887,0,1.666,0.335,2.336,1.005
	c0.67,0.67,1.005,1.478,1.005,2.421v13.509c0,1.889-0.925,2.918-2.775,3.088c0.415-0.453,0.684-0.869,0.807-1.246
	c0.123-0.377,0.184-0.991,0.184-1.842v-12.999C207.027,389.082,206.177,387.808,204.478,387.033L204.478,387.033z M223.396,386.764
	c-0.453-0.783-1.189-1.383-2.209-1.798c1.812,0.076,3.077,0.538,3.795,1.388c0.717,0.85,1.076,2.086,1.076,3.71v12.518
	c0,1.454-0.161,2.544-0.481,3.271c-0.321,0.727-0.973,1.09-1.954,1.09h-0.538c0.358-0.377,0.599-0.694,0.722-0.949
	c0.123-0.256,0.198-0.52,0.227-0.793c0.028-0.273,0.042-0.703,0.042-1.289V389.95C224.076,388.61,223.849,387.548,223.396,386.764z"
	/>
<path fill="#B37C3B" d="M242.649,409.266c1.851,0,3.517-0.359,4.999-1.076s2.644-1.689,3.483-2.918
	c0.84-1.227,1.26-2.566,1.26-4.021c0-1.246-0.33-2.397-0.991-3.455c-0.661-1.057-1.548-1.878-2.662-2.464
	c-1.775-0.981-3.842-2.001-6.202-3.059c-2.361-1.057-3.908-1.855-4.645-2.393c-0.736-0.538-1.104-1.27-1.104-2.195
	c0-0.717,0.297-1.374,0.892-1.968c0.595-0.595,1.345-0.892,2.251-0.892c1.454,0,2.931,0.576,4.432,1.728
	c1.501,1.152,3.016,2.86,4.545,5.126h1.388l-0.283-6.712c-1.472-0.547-2.813-0.967-4.021-1.26c-1.208-0.292-2.511-0.439-3.908-0.439
	c-2.757,0-4.946,0.708-6.57,2.124s-2.436,3.182-2.436,5.296c0,3.568,2.596,6.315,7.789,8.242c1.963,0.754,4.011,1.84,6.146,3.256
	c0.566,0.396,0.849,1.114,0.849,2.152c0,0.793-0.377,1.501-1.132,2.124c-0.756,0.623-1.615,0.935-2.578,0.935
	c-1.492,0-3.021-0.646-4.588-1.939c-1.567-1.293-3.068-3.214-4.503-5.764h-1.529v7.421
	C236.985,408.547,240.024,409.266,242.649,409.266L242.649,409.266z M236.674,405.045c0.566,0.643,1.435,1.369,2.605,2.182
	c-2.19-0.586-3.757-1.086-4.701-1.502v-3.539C235.408,403.45,236.107,404.402,236.674,405.045z M248.794,404.082
	c0-1.284-0.557-2.289-1.671-3.016c-1.114-0.728-2.936-1.662-5.466-2.805c-2.53-1.142-4.437-2.27-5.721-3.384
	c-1.284-1.114-1.926-2.567-1.926-4.361c0-0.868,0.146-1.6,0.439-2.195c0.293-0.595,0.684-1.194,1.175-1.798
	c-0.453,1.001-0.68,1.907-0.68,2.719c0,1.341,0.34,2.459,1.02,3.356c0.68,0.897,1.784,1.766,3.313,2.605
	c1.529,0.84,3.616,1.808,6.259,2.903c2.945,1.188,4.418,2.793,4.418,4.813c0,0.661-0.123,1.185-0.368,1.572
	c-0.246,0.387-0.623,0.817-1.133,1.289C248.682,405.121,248.794,404.555,248.794,404.082L248.794,404.082z M245.382,386.311
	c-0.84-0.651-1.968-1.222-3.384-1.713c1.34,0,2.36,0.095,3.059,0.283c0.698,0.189,1.671,0.538,2.917,1.048l0.254,3.257
	C247.171,387.921,246.222,386.962,245.382,386.311z"/>
<path fill="#B37C3B" d="M260.798,383.267l-9.147,1.926v1.161c1.359,0.453,2.327,1.053,2.903,1.798
	c0.576,0.746,0.864,1.846,0.864,3.299v26.791c0,0.717-0.123,1.255-0.368,1.613c-0.246,0.358-0.604,0.586-1.076,0.681
	c-0.472,0.094-1.189,0.159-2.152,0.198v1.613h14.783v-1.558h-1.444c-0.888,0-1.577-0.104-2.067-0.312
	c-0.491-0.209-0.812-0.535-0.963-0.978c-0.151-0.444-0.227-1.034-0.227-1.771v-9.799c1.963,0.851,3.937,1.274,5.919,1.274
	c2.53,0,4.819-0.562,6.868-1.685c2.048-1.123,3.658-2.687,4.829-4.688c1.17-2.001,1.756-4.248,1.756-6.74
	c0-1.793-0.316-3.493-0.949-5.098c-0.633-1.604-1.473-2.974-2.521-4.106c-1.048-1.132-2.266-2.02-3.653-2.662
	c-1.388-0.642-2.818-0.963-4.291-0.963c-1.529,0-2.908,0.269-4.135,0.807c-1.228,0.538-2.502,1.298-3.823,2.28v-3.087h-1.106
	V383.267z M257.626,419.913c-0.378,0.623-1.208,0.991-2.492,1.104c0.472-0.358,0.793-0.76,0.963-1.204
	c0.17-0.443,0.255-1.043,0.255-1.797v-26.679c0-1.435-0.184-2.478-0.552-3.129c-0.368-0.651-1.081-1.27-2.138-1.855
	c1.624-0.132,2.785,0.198,3.483,0.991s1.048,2.067,1.048,3.823v25.573C258.192,418.232,258.003,419.29,257.626,419.913z
	 M267,386.354c1.34,0,2.553,0.396,3.639,1.189c1.085,0.793,1.94,1.978,2.563,3.554c0.623,1.577,0.935,3.507,0.935,5.792
	c0,2.342-0.326,4.319-0.977,5.934c-0.651,1.613-1.515,2.818-2.591,3.611c-1.076,0.793-2.266,1.188-3.568,1.188
	c-1.605,0-3.304-0.831-5.098-2.492v-16.709C263.658,387.043,265.357,386.354,267,386.354L267,386.354z M269.096,384.824
	c0.812,0,1.666,0.212,2.563,0.637c0.896,0.425,1.742,1.09,2.535,1.997s1.449,2.148,1.968,3.724c0.519,1.577,0.779,3.422,0.779,5.537
	c0,1.756-0.222,3.342-0.666,4.758s-1.1,2.597-1.968,3.541c-0.869,0.943-1.964,1.662-3.285,2.151
	c1.265-1.038,2.256-2.312,2.974-3.823c0.717-1.51,1.076-3.662,1.076-6.457c0-3.625-0.727-6.433-2.181-8.425
	c-1.454-1.992-3.38-2.988-5.777-2.988h-0.68C267.396,385.042,268.284,384.824,269.096,384.824L269.096,384.824z"/>
<path fill="#B37C3B" d="M290.36,383.267l-8.468,2.917v0.906c1,0.34,1.774,0.859,2.322,1.558c0.547,0.699,0.821,1.454,0.821,2.266
	v12.999c0,1.114-0.231,1.888-0.694,2.321c-0.463,0.436-1.279,0.67-2.45,0.709v1.558h13.226v-1.558
	c-1.039-0.039-1.808-0.143-2.308-0.312s-0.84-0.477-1.02-0.92c-0.18-0.443-0.269-1.1-0.269-1.968v-20.476H290.36L290.36,383.267z
	 M283.591,386.92c0.264-0.038,0.613-0.057,1.048-0.057c0.944,0,1.708,0.326,2.294,0.977c0.585,0.651,0.878,1.582,0.878,2.79v13.282
	c0,1.076-0.241,1.852-0.722,2.322c-0.481,0.472-1.242,0.707-2.28,0.707c0.774-0.565,1.161-1.396,1.161-2.491v-13.452
	C285.97,389.11,285.177,387.751,283.591,386.92L283.591,386.92z M286.069,369.999c-0.614,0.35-1.095,0.831-1.444,1.444
	c-0.35,0.614-0.524,1.27-0.524,1.968c0,1.076,0.387,2.011,1.161,2.804c0.774,0.793,1.699,1.189,2.775,1.189
	c0.717,0,1.388-0.179,2.011-0.538c0.623-0.358,1.114-0.845,1.473-1.458c0.358-0.613,0.538-1.279,0.538-1.997
	c0-0.717-0.18-1.378-0.538-1.982c-0.359-0.604-0.85-1.081-1.473-1.43s-1.293-0.524-2.011-0.524
	C287.339,369.475,286.683,369.649,286.069,369.999z M286.763,373.411c0,0.661,0.142,1.204,0.425,1.628s0.727,0.911,1.331,1.458
	c-1.152-0.057-2.021-0.373-2.605-0.949c-0.585-0.576-0.878-1.307-0.878-2.195c0-0.925,0.302-1.652,0.906-2.181
	c0.604-0.528,1.463-0.793,2.577-0.793C287.348,371.174,286.763,372.184,286.763,373.411L286.763,373.411z"/>
<path fill="#B37C3B" d="M303.779,383.267l-9.119,2.917v0.963c2.7,0.812,4.05,2.304,4.05,4.475v12.716
	c0,1.737-1.095,2.605-3.285,2.605h-0.765v1.558h15.208v-1.558c-1.436,0-2.44-0.053-3.017-0.156
	c-0.575-0.104-1.001-0.363-1.273-0.779c-0.274-0.415-0.411-1.113-0.411-2.096v-13.679c0.453-0.491,0.854-0.873,1.204-1.147
	c0.349-0.273,0.703-0.411,1.062-0.411c0.188,0,0.363,0.047,0.523,0.142c0.161,0.095,0.345,0.227,0.553,0.396
	c0.208,0.17,0.406,0.331,0.596,0.481c0.32,0.246,0.717,0.444,1.188,0.595s0.906,0.227,1.303,0.227c0.888,0,1.624-0.354,2.209-1.062
	s0.878-1.59,0.878-2.648c0-1.02-0.325-1.864-0.977-2.535c-0.651-0.67-1.449-1.005-2.393-1.005c-1.096,0-2.03,0.316-2.805,0.949
	c-0.773,0.633-1.888,1.77-3.342,3.413v-4.361H303.779L303.779,383.267z M296.643,387.09c0.113,0,0.33-0.019,0.651-0.057
	c0.321-0.038,0.529-0.057,0.624-0.057c1.227,0,2.124,0.368,2.69,1.104c0.565,0.736,0.85,1.917,0.85,3.54v11.95
	c0,1.189-0.236,2.025-0.708,2.507s-1.246,0.771-2.322,0.864c0.396-0.358,0.698-0.694,0.906-1.006s0.312-0.787,0.312-1.43V391.62
	C299.645,389.469,298.644,387.958,296.643,387.09L296.643,387.09z M309.047,386.58c0.472,0,1.066,0.293,1.784,0.878
	c0.566,0.378,1.133,0.566,1.699,0.566c0.245,0,0.632-0.132,1.161-0.396c-0.453,1.265-1.172,1.897-2.152,1.897
	c-0.793,0-1.775-0.462-2.945-1.388c-0.51-0.34-1.02-0.51-1.528-0.51C307.933,386.93,308.594,386.58,309.047,386.58L309.047,386.58z"
	/>
<path fill="#B37C3B" d="M321.63,385.376c0.576-0.368,1.374-0.552,2.394-0.552c1.17,0,2.048,0.331,2.634,0.991
	c0.585,0.661,0.878,1.633,0.878,2.917v4.276c-1.341,0.774-3.049,1.704-5.126,2.79s-3.649,1.981-4.715,2.69
	c-1.067,0.707-1.927,1.52-2.577,2.436c-0.651,0.916-0.978,2.025-0.978,3.328c0,1.454,0.533,2.653,1.601,3.598
	c1.065,0.943,2.506,1.416,4.318,1.416c2.55,0,5.126-1.123,7.731-3.371c0.283,1.172,0.774,2.035,1.473,2.592s1.671,0.834,2.917,0.834
	c1.076,0,2.006-0.235,2.79-0.707c0.783-0.473,1.639-1.17,2.563-2.096l-1.048-1.219c-0.566,0.623-1.049,0.936-1.444,0.936
	c-0.661,0-0.991-0.576-0.991-1.729V390.12c0-1.473-0.378-2.728-1.133-3.767c-0.755-1.038-1.77-1.812-3.044-2.322
	c-1.274-0.51-2.648-0.765-4.121-0.765c-2.021,0-3.866,0.297-5.537,0.892c-1.671,0.595-2.982,1.364-3.937,2.308
	c-0.954,0.944-1.431,1.907-1.431,2.889c0,0.661,0.283,1.242,0.851,1.742c0.565,0.5,1.331,0.75,2.294,0.75
	c1,0,1.836-0.316,2.506-0.949c0.67-0.632,1.005-1.354,1.005-2.167c0-0.415-0.123-0.859-0.368-1.331
	c-0.246-0.472-0.368-0.746-0.368-0.821C320.767,386.146,321.054,385.745,321.63,385.376z M328.102,386.523
	c-0.245-0.717-0.735-1.265-1.473-1.643c1.359,0.151,2.317,0.6,2.875,1.345c0.557,0.746,0.835,2.101,0.835,4.064v12.999
	c0,1.567,0.236,2.719,0.708,3.455c0.472,0.735,1.274,1.188,2.407,1.358c-0.378,0.151-0.878,0.228-1.501,0.228
	c-1.378,0-2.304-0.542-2.775-1.628c-0.472-1.085-0.708-2.733-0.708-4.942v-11.187C328.47,388.591,328.347,387.241,328.102,386.523z
	 M323.882,405.838c-0.755,0-1.416-0.283-1.981-0.85c-0.566-0.567-0.851-1.369-0.851-2.407c0-1.548,0.478-2.87,1.431-3.965
	c0.952-1.095,2.638-2.322,5.055-3.682v9.091C326.289,405.234,325.071,405.838,323.882,405.838L323.882,405.838z M319.889,408.273
	c-1.188,0-2.29-0.383-3.299-1.147c-1.01-0.765-1.515-1.724-1.515-2.875c0-1.265,0.42-2.36,1.26-3.285s2.025-1.831,3.554-2.719
	c-1.001,1.058-1.751,2.017-2.251,2.875s-0.75,1.771-0.75,2.733c0,1.321,0.515,2.332,1.543,3.029
	c1.029,0.699,2.402,1.049,4.121,1.049C321.928,408.16,321.04,408.273,319.889,408.273L319.889,408.273z M317.736,390.856
	c-0.529,0-0.987-0.165-1.374-0.496c-0.388-0.33-0.581-0.684-0.581-1.062c0-0.85,0.357-1.614,1.076-2.294
	c0.717-0.68,1.745-1.359,3.087-2.039c-0.793,0.869-1.351,1.534-1.671,1.997c-0.321,0.463-0.481,0.987-0.481,1.572
	c0,0.435,0.179,0.812,0.538,1.133c0.358,0.321,0.878,0.453,1.558,0.396C319.36,390.592,318.643,390.856,317.736,390.856
	L317.736,390.856z"/>
<path fill="#B37C3B" d="M340.855,405.682c0.312,1.104,0.872,1.979,1.685,2.62c0.812,0.642,1.944,0.964,3.398,0.964
	c1.528,0,2.884-0.354,4.063-1.062s2.479-1.789,3.895-3.243l-1.049-1.104c-0.831,0.793-1.533,1.379-2.109,1.756
	c-0.576,0.379-1.204,0.566-1.883,0.566c-0.719,0-1.229-0.307-1.529-0.92c-0.302-0.613-0.453-1.543-0.453-2.79v-16.936h7.023v-1.784
	h-7.023v-7.392h-1.501c-0.529,0.906-1.166,1.775-1.912,2.605c-0.746,0.831-1.534,1.582-2.365,2.251
	c-0.831,0.67-2.077,1.628-3.737,2.875v1.444h3.029v16.113C340.388,403.232,340.544,404.578,340.855,405.682z M343.164,402.354
	c0,2.002,0.448,3.433,1.345,4.291c0.896,0.859,2.204,1.26,3.922,1.205c-0.888,0.282-1.774,0.424-2.662,0.424
	c-1.681,0-2.846-0.57-3.497-1.713c-0.651-1.142-0.978-2.969-0.978-5.479v-18.805l1.869-1.558L343.164,402.354L343.164,402.354z"/>
<path fill="#B37C3B" d="M362.134,383.267l-8.468,2.917v0.906c1,0.34,1.774,0.859,2.322,1.558c0.547,0.699,0.82,1.454,0.82,2.266
	v12.999c0,1.114-0.23,1.888-0.693,2.321c-0.463,0.436-1.279,0.67-2.45,0.709v1.558h13.226v-1.558
	c-1.039-0.039-1.808-0.143-2.308-0.312s-0.84-0.477-1.02-0.92c-0.181-0.443-0.27-1.1-0.27-1.968v-20.476H362.134L362.134,383.267z
	 M355.365,386.92c0.264-0.038,0.612-0.057,1.048-0.057c0.944,0,1.708,0.326,2.294,0.977c0.585,0.651,0.878,1.582,0.878,2.79v13.282
	c0,1.076-0.241,1.852-0.722,2.322c-0.481,0.472-1.242,0.707-2.28,0.707c0.774-0.565,1.161-1.396,1.161-2.491v-13.452
	C357.744,389.11,356.951,387.751,355.365,386.92L355.365,386.92z M357.843,369.999c-0.614,0.35-1.095,0.831-1.443,1.444
	c-0.351,0.614-0.524,1.27-0.524,1.968c0,1.076,0.387,2.011,1.161,2.804c0.773,0.793,1.699,1.189,2.774,1.189
	c0.718,0,1.389-0.179,2.012-0.538c0.623-0.358,1.113-0.845,1.473-1.458c0.358-0.613,0.538-1.279,0.538-1.997
	c0-0.717-0.18-1.378-0.538-1.982c-0.359-0.604-0.85-1.081-1.473-1.43s-1.293-0.524-2.012-0.524
	C359.113,369.475,358.457,369.649,357.843,369.999z M358.537,373.411c0,0.661,0.142,1.204,0.425,1.628s0.728,0.911,1.331,1.458
	c-1.152-0.057-2.021-0.373-2.605-0.949c-0.585-0.576-0.878-1.307-0.878-2.195c0-0.925,0.303-1.652,0.906-2.181
	c0.604-0.528,1.463-0.793,2.577-0.793C359.122,371.174,358.537,372.184,358.537,373.411L358.537,373.411z"/>
<path fill="#B37C3B" d="M368.6,403.048c1.143,1.954,2.691,3.47,4.646,4.545c1.954,1.076,4.11,1.614,6.471,1.614
	c1.756,0,3.398-0.32,4.928-0.963c1.53-0.643,2.885-1.553,4.064-2.732c1.18-1.181,2.105-2.587,2.775-4.221
	c0.67-1.633,1.005-3.365,1.005-5.197c0-2.397-0.558-4.578-1.671-6.542c-1.114-1.963-2.639-3.502-4.573-4.616
	c-1.937-1.114-4.074-1.671-6.415-1.671c-2.397,0-4.583,0.571-6.556,1.713c-1.975,1.143-3.531,2.714-4.674,4.715
	c-1.142,2.001-1.713,4.21-1.713,6.627C366.887,398.854,367.458,401.094,368.6,403.048z M373.004,406.348
	c-1.133-0.755-2.082-1.633-2.846-2.634c-0.766-1-1.346-2.124-1.742-3.37s-0.595-2.511-0.595-3.795c0-1.756,0.302-3.422,0.906-4.999
	c0.604-1.576,1.549-2.978,2.832-4.206c1.284-1.227,2.88-2.181,4.786-2.86c-1.435,1.076-2.629,2.12-3.583,3.129
	c-0.954,1.01-1.723,2.214-2.308,3.611s-0.878,3.021-0.878,4.871c0,2.436,0.614,4.672,1.841,6.711
	c1.229,2.039,3.068,3.805,5.523,5.297C375.449,407.688,374.137,407.104,373.004,406.348z M375.412,387.302
	c1-1.652,2.396-2.478,4.19-2.478c1.851,0,3.3,1.1,4.348,3.299c1.048,2.2,1.572,5.263,1.572,9.189c0,2.229-0.241,4.111-0.723,5.65
	c-0.48,1.539-1.128,2.7-1.939,3.482c-0.812,0.785-1.689,1.176-2.635,1.176c-1.868,0-3.389-1.146-4.56-3.441
	c-1.17-2.294-1.756-5.451-1.756-9.473C373.91,391.423,374.41,388.955,375.412,387.302z M385.819,402.822
	c0.425-1.389,0.637-3.11,0.637-5.168c0-3.247-0.288-5.834-0.864-7.76c-0.576-1.926-1.524-3.549-2.846-4.871
	c3.7,1.832,5.551,5.749,5.551,11.752c0,2.437-0.378,4.494-1.133,6.175s-1.84,2.907-3.256,3.682
	C384.757,405.479,385.395,404.209,385.819,402.822z"/>
<path fill="#B37C3B" d="M401.886,383.267l-8.949,2.832v0.935c1.266,0.396,2.182,0.977,2.747,1.742
	c0.566,0.765,0.851,1.77,0.851,3.016v12.546c0,1.114-0.312,1.827-0.936,2.139c-0.623,0.311-1.511,0.467-2.661,0.467v1.558h13.679
	v-1.558c-0.906-0.039-1.601-0.113-2.082-0.228c-0.482-0.114-0.864-0.396-1.147-0.85s-0.425-1.104-0.425-1.954v-14.953
	c1.246-1.133,2.383-1.978,3.413-2.535c1.029-0.557,2.082-0.835,3.158-0.835c0.868,0,1.604,0.18,2.209,0.538
	c0.604,0.359,1.062,0.883,1.374,1.572c0.312,0.689,0.467,1.534,0.467,2.535v13.679c0,1.246-0.279,2.063-0.835,2.45
	c-0.557,0.387-1.44,0.58-2.648,0.58v1.559h13.65v-1.559c-1.189,0-2.077-0.159-2.662-0.48c-0.585-0.32-0.878-1.095-0.878-2.322
	v-12.914c0-5.305-2.672-7.958-8.015-7.958c-1.869,0-3.479,0.321-4.829,0.963c-1.351,0.642-2.818,1.577-4.404,2.804v-3.767h-1.076
	V383.267z M394.919,387.033c0.075,0,0.236-0.019,0.481-0.057c0.244-0.038,0.415-0.057,0.51-0.057c0.887,0,1.666,0.335,2.336,1.005
	s1.005,1.478,1.005,2.421v13.509c0,1.889-0.925,2.918-2.775,3.088c0.415-0.453,0.685-0.869,0.808-1.246s0.184-0.991,0.184-1.842
	v-12.999C397.468,389.082,396.619,387.808,394.919,387.033L394.919,387.033z M413.837,386.764c-0.453-0.783-1.188-1.383-2.209-1.798
	c1.812,0.076,3.077,0.538,3.795,1.388c0.717,0.85,1.076,2.086,1.076,3.71v12.518c0,1.454-0.161,2.544-0.481,3.271
	c-0.32,0.727-0.973,1.09-1.953,1.09h-0.538c0.357-0.377,0.599-0.694,0.722-0.949c0.123-0.256,0.198-0.52,0.227-0.793
	s0.042-0.703,0.042-1.289V389.95C414.517,388.61,414.291,387.548,413.837,386.764z"/>
</svg>
