<?xml version="1.0" encoding="utf-8"?>
<!-- Generator: Adobe Illustrator 16.0.0, SVG Export Plug-In . SVG Version: 6.00 Build 0)  -->
<!DOCTYPE svg PUBLIC "-//W3C//DTD SVG 1.1//EN" "http://www.w3.org/Graphics/SVG/1.1/DTD/svg11.dtd">
<svg version="1.1" id="Layer_1" xmlns="http://www.w3.org/2000/svg" xmlns:xlink="http://www.w3.org/1999/xlink" x="0px" y="0px"
	 width="229.669px" height="55px" viewBox="0 0 229.669 55" enable-background="new 0 0 229.669 55" xml:space="preserve">
<path fill="#32666B" d="M9.572,41.765c1.85,0,3.516-0.359,4.999-1.076c1.482-0.717,2.643-1.689,3.483-2.917
	c0.84-1.227,1.26-2.567,1.26-4.021c0-1.246-0.331-2.397-0.991-3.455c-0.661-1.057-1.548-1.878-2.662-2.464
	c-1.775-0.981-3.842-2.001-6.202-3.059c-2.36-1.057-3.908-1.855-4.645-2.393S3.71,21.11,3.71,20.185
	c0-0.717,0.297-1.374,0.892-1.968s1.345-0.892,2.251-0.892c1.454,0,2.931,0.576,4.432,1.728c1.501,1.152,3.016,2.86,4.545,5.126
	h1.388l-0.283-6.712c-1.473-0.547-2.813-0.967-4.021-1.26c-1.208-0.292-2.511-0.439-3.908-0.439c-2.757,0-4.947,0.708-6.57,2.124
	C0.812,19.307,0,21.072,0,23.187c0,3.568,2.596,6.315,7.788,8.241c1.963,0.755,4.012,1.841,6.146,3.257
	c0.566,0.396,0.85,1.114,0.85,2.152c0,0.793-0.378,1.501-1.133,2.124c-0.755,0.623-1.614,0.935-2.577,0.935
	c-1.492,0-3.021-0.646-4.588-1.94c-1.567-1.293-3.068-3.214-4.503-5.763H0.453v7.42C3.908,41.047,6.948,41.765,9.572,41.765
	L9.572,41.765z M3.597,37.545c0.566,0.642,1.435,1.369,2.605,2.181c-2.19-0.585-3.757-1.085-4.701-1.501v-3.54
	C2.332,35.95,3.03,36.903,3.597,37.545z M15.718,36.582c0-1.284-0.557-2.289-1.671-3.016c-1.114-0.727-2.936-1.661-5.466-2.804
	c-2.53-1.142-4.437-2.27-5.721-3.384c-1.284-1.114-1.926-2.567-1.926-4.361c0-0.868,0.146-1.6,0.439-2.195
	c0.292-0.595,0.684-1.194,1.175-1.798c-0.453,1.001-0.68,1.907-0.68,2.719c0,1.341,0.34,2.459,1.02,3.356
	c0.68,0.897,1.784,1.766,3.313,2.605c1.529,0.84,3.615,1.808,6.259,2.903c2.945,1.189,4.418,2.794,4.418,4.814
	c0,0.661-0.123,1.185-0.368,1.572c-0.246,0.387-0.623,0.817-1.133,1.289C15.604,37.621,15.718,37.054,15.718,36.582L15.718,36.582z
	 M12.305,18.811c-0.84-0.651-1.968-1.222-3.384-1.713c1.34,0,2.36,0.095,3.059,0.283c0.698,0.189,1.671,0.538,2.917,1.048
	l0.255,3.257C14.094,20.421,13.145,19.462,12.305,18.811z"/>
<path fill="#32666B" d="M34.915,36.582c-0.982,0-2.011-0.179-3.087-0.538c-1.076-0.358-2.091-0.953-3.044-1.784
	c-0.954-0.831-1.728-1.926-2.322-3.285s-0.93-3.021-1.005-4.984h17.105c-0.17-1.34-0.401-2.487-0.694-3.441
	c-0.293-0.953-0.77-1.883-1.43-2.79c-0.906-1.246-2.129-2.223-3.667-2.931c-1.539-0.708-3.158-1.062-4.857-1.062
	c-1.681,0-3.262,0.354-4.744,1.062c-1.482,0.708-2.785,1.695-3.908,2.959c-1.124,1.265-2.001,2.729-2.634,4.39
	c-0.633,1.662-0.949,3.437-0.949,5.324c0,2.398,0.519,4.541,1.558,6.429c1.038,1.888,2.45,3.333,4.234,4.333
	s3.714,1.501,5.792,1.501c1.529,0,2.997-0.246,4.404-0.736c1.406-0.491,2.695-1.246,3.866-2.266c1.17-1.02,2.181-2.322,3.03-3.908
	l-1.133-0.878C39.464,35.714,37.293,36.582,34.915,36.582L34.915,36.582z M36.416,23.611c0-1.793-0.265-3.129-0.793-4.007
	c-0.529-0.878-1.397-1.59-2.605-2.138c1.907,0.34,3.266,1.015,4.078,2.025c0.812,1.01,1.246,2.573,1.303,4.687h-1.982V23.611z
	 M27.268,19.547c1-1.274,2.218-1.912,3.653-1.912c0.887,0,1.675,0.231,2.365,0.694c0.689,0.463,1.232,1.124,1.628,1.982
	c0.396,0.859,0.595,1.836,0.595,2.931v0.935h-9.884C25.72,22.365,26.267,20.822,27.268,19.547z M23.218,23.385
	c-0.623,1.586-0.935,3.38-0.935,5.381c0,3.153,0.939,5.711,2.818,7.675c1.878,1.964,4.224,2.945,7.038,2.945
	c1.661,0,3.091-0.231,4.291-0.694c1.199-0.462,2.374-1.062,3.526-1.798c-1.114,1.284-2.478,2.251-4.092,2.903
	s-3.224,0.977-4.829,0.977c-2.757,0-5.188-1.043-7.292-3.129c-2.105-2.086-3.158-4.772-3.158-8.057
	c0-4.531,1.765-8.194,5.296-10.988C24.729,20.204,23.841,21.799,23.218,23.385z"/>
<path fill="#32666B" d="M58.302,36.582c-0.982,0-2.011-0.179-3.087-0.538c-1.076-0.358-2.091-0.953-3.044-1.784
	c-0.953-0.831-1.728-1.926-2.322-3.285s-0.93-3.021-1.005-4.984h17.105c-0.17-1.34-0.401-2.487-0.693-3.441
	c-0.293-0.953-0.77-1.883-1.431-2.79c-0.906-1.246-2.128-2.223-3.667-2.931c-1.539-0.708-3.158-1.062-4.856-1.062
	c-1.681,0-3.262,0.354-4.744,1.062s-2.785,1.695-3.908,2.959c-1.124,1.265-2.001,2.729-2.634,4.39
	c-0.633,1.662-0.949,3.437-0.949,5.324c0,2.398,0.519,4.541,1.558,6.429c1.038,1.888,2.45,3.333,4.234,4.333
	s3.715,1.501,5.792,1.501c1.529,0,2.998-0.246,4.404-0.736c1.407-0.491,2.695-1.246,3.866-2.266c1.171-1.02,2.181-2.322,3.03-3.908
	l-1.133-0.878C62.852,35.714,60.681,36.582,58.302,36.582L58.302,36.582z M59.803,23.611c0-1.793-0.264-3.129-0.793-4.007
	s-1.397-1.59-2.605-2.138c1.906,0.34,3.266,1.015,4.078,2.025c0.812,1.01,1.246,2.573,1.303,4.687h-1.982V23.611z M50.656,19.547
	c1-1.274,2.218-1.912,3.654-1.912c0.887,0,1.675,0.231,2.364,0.694c0.689,0.463,1.232,1.124,1.628,1.982
	c0.396,0.859,0.595,1.836,0.595,2.931v0.935h-9.883C49.107,22.365,49.655,20.822,50.656,19.547z M46.606,23.385
	c-0.623,1.586-0.934,3.38-0.934,5.381c0,3.153,0.939,5.711,2.817,7.675c1.879,1.964,4.225,2.945,7.038,2.945
	c1.662,0,3.092-0.231,4.291-0.694c1.198-0.462,2.374-1.062,3.525-1.798c-1.114,1.284-2.478,2.251-4.092,2.903
	s-3.224,0.977-4.829,0.977c-2.757,0-5.188-1.043-7.292-3.129c-2.106-2.086-3.158-4.772-3.158-8.057
	c0-4.531,1.765-8.194,5.296-10.988C48.116,20.204,47.229,21.799,46.606,23.385z"/>
<path fill="#32666B" d="M81.23,17.876c0.576-0.368,1.374-0.552,2.393-0.552c1.17,0,2.048,0.331,2.634,0.991
	c0.585,0.661,0.878,1.633,0.878,2.917v4.276c-1.341,0.774-3.049,1.704-5.126,2.79c-2.077,1.086-3.649,1.982-4.715,2.69
	c-1.067,0.708-1.926,1.52-2.577,2.436c-0.651,0.916-0.977,2.025-0.977,3.328c0,1.454,0.533,2.653,1.6,3.597
	c1.066,0.944,2.506,1.416,4.319,1.416c2.549,0,5.126-1.123,7.731-3.37c0.283,1.171,0.774,2.035,1.473,2.591
	c0.698,0.557,1.671,0.835,2.917,0.835c1.076,0,2.006-0.236,2.79-0.708c0.783-0.472,1.638-1.17,2.563-2.096L96.084,37.8
	c-0.566,0.623-1.048,0.935-1.444,0.935c-0.661,0-0.991-0.576-0.991-1.728V22.62c0-1.473-0.378-2.728-1.133-3.767
	c-0.755-1.038-1.77-1.812-3.044-2.322s-2.648-0.765-4.121-0.765c-2.021,0-3.866,0.297-5.537,0.892s-2.983,1.364-3.937,2.308
	c-0.954,0.944-1.43,1.907-1.43,2.889c0,0.661,0.283,1.242,0.85,1.742c0.566,0.5,1.331,0.75,2.294,0.75c1,0,1.836-0.316,2.506-0.949
	c0.67-0.632,1.005-1.354,1.005-2.167c0-0.415-0.123-0.859-0.368-1.331c-0.246-0.472-0.368-0.746-0.368-0.821
	C80.366,18.646,80.654,18.245,81.23,17.876z M87.701,19.023c-0.246-0.717-0.736-1.265-1.473-1.643
	c1.359,0.151,2.317,0.6,2.875,1.345c0.557,0.746,0.835,2.101,0.835,4.064v12.999c0,1.567,0.236,2.719,0.708,3.455
	c0.472,0.736,1.274,1.189,2.407,1.359c-0.378,0.151-0.878,0.227-1.501,0.227c-1.378,0-2.304-0.542-2.775-1.628
	c-0.472-1.085-0.708-2.733-0.708-4.942V23.073C88.069,21.091,87.946,19.741,87.701,19.023z M83.481,38.338
	c-0.755,0-1.416-0.283-1.982-0.85s-0.85-1.369-0.85-2.407c0-1.548,0.477-2.87,1.43-3.965c0.953-1.095,2.638-2.322,5.055-3.682v9.091
	C85.889,37.734,84.671,38.338,83.481,38.338L83.481,38.338z M79.488,40.773c-1.189,0-2.29-0.382-3.299-1.147
	c-1.01-0.765-1.515-1.723-1.515-2.875c0-1.265,0.42-2.36,1.26-3.285c0.84-0.925,2.025-1.831,3.554-2.719
	c-1.001,1.058-1.751,2.016-2.251,2.875c-0.5,0.859-0.75,1.77-0.75,2.733c0,1.322,0.514,2.332,1.543,3.03
	c1.029,0.699,2.402,1.048,4.121,1.048C81.527,40.66,80.64,40.773,79.488,40.773L79.488,40.773z M77.336,23.356
	c-0.529,0-0.987-0.165-1.374-0.496c-0.387-0.33-0.581-0.684-0.581-1.062c0-0.85,0.358-1.614,1.076-2.294
	c0.717-0.68,1.746-1.359,3.087-2.039c-0.793,0.869-1.35,1.534-1.671,1.997c-0.321,0.463-0.481,0.987-0.481,1.572
	c0,0.435,0.179,0.812,0.538,1.133c0.358,0.321,0.878,0.453,1.558,0.396C78.959,23.092,78.242,23.356,77.336,23.356L77.336,23.356z"
	/>
<path fill="#32666B" d="M99.648,38.734c-0.491,0.472-1.293,0.708-2.407,0.708h-0.68V41h14.104v-1.558H109.9
	c-1.359,0-2.205-0.283-2.535-0.85c-0.331-0.566-0.496-1.586-0.496-3.059V0.105h-1.104l-9.204,3.03V4.24
	c1.643,0.604,2.69,1.312,3.144,2.124c0.453,0.812,0.68,1.936,0.68,3.37v26.848C100.384,37.545,100.139,38.263,99.648,38.734z
	 M102.65,38.352c-0.34,0.67-1.171,1.034-2.492,1.09c0.774-0.736,1.161-1.746,1.161-3.03V9.904c0-1.567-0.175-2.832-0.524-3.795
	c-0.35-0.963-1.393-1.689-3.129-2.181c0.377-0.038,0.878-0.057,1.501-0.057c1.265,0,2.185,0.269,2.761,0.807
	c0.576,0.538,0.925,1.208,1.048,2.011c0.123,0.803,0.184,1.874,0.184,3.214v25.517C103.16,36.705,102.99,37.682,102.65,38.352z"/>
<path fill="#32666B" d="M112.756,38.734c-0.491,0.472-1.294,0.708-2.407,0.708h-0.68V41h14.104v-1.558h-0.765
	c-1.359,0-2.204-0.283-2.534-0.85c-0.331-0.566-0.496-1.586-0.496-3.059V0.105h-1.104l-9.204,3.03V4.24
	c1.642,0.604,2.69,1.312,3.143,2.124c0.454,0.812,0.68,1.936,0.68,3.37v26.848C113.492,37.545,113.247,38.263,112.756,38.734z
	 M115.757,38.352c-0.339,0.67-1.17,1.034-2.492,1.09c0.774-0.736,1.161-1.746,1.161-3.03V9.904c0-1.567-0.175-2.832-0.524-3.795
	c-0.35-0.963-1.393-1.689-3.129-2.181c0.377-0.038,0.878-0.057,1.5-0.057c1.265,0,2.186,0.269,2.762,0.807
	c0.576,0.538,0.925,1.208,1.047,2.011c0.123,0.803,0.185,1.874,0.185,3.214v25.517C116.268,36.705,116.098,37.682,115.757,38.352z"
	/>
<path fill="#32666B" d="M139.181,15.767l-9.147,1.926v1.161c1.359,0.453,2.327,1.053,2.903,1.798
	c0.576,0.746,0.864,1.846,0.864,3.299v26.791c0,0.717-0.123,1.255-0.368,1.614c-0.246,0.358-0.604,0.585-1.076,0.68
	c-0.472,0.094-1.189,0.16-2.152,0.198v1.614h14.783v-1.558h-1.444c-0.888,0-1.577-0.104-2.067-0.312
	c-0.491-0.208-0.812-0.534-0.963-0.977c-0.151-0.444-0.227-1.034-0.227-1.77v-9.799c1.963,0.85,3.937,1.274,5.919,1.274
	c2.53,0,4.819-0.562,6.868-1.685c2.048-1.123,3.658-2.686,4.829-4.687c1.17-2.001,1.756-4.248,1.756-6.74
	c0-1.793-0.316-3.493-0.949-5.098c-0.633-1.604-1.473-2.974-2.521-4.106s-2.266-2.02-3.653-2.662
	c-1.388-0.642-2.818-0.963-4.291-0.963c-1.529,0-2.908,0.269-4.135,0.807c-1.228,0.538-2.502,1.298-3.823,2.28v-3.087H139.181z
	 M136.009,52.413c-0.378,0.623-1.208,0.991-2.492,1.104c0.472-0.359,0.793-0.76,0.963-1.204c0.17-0.444,0.255-1.043,0.255-1.798
	V23.838c0-1.435-0.184-2.478-0.552-3.129s-1.081-1.27-2.138-1.855c1.624-0.132,2.785,0.198,3.483,0.991
	c0.698,0.793,1.048,2.067,1.048,3.823v25.573C136.575,50.732,136.386,51.79,136.009,52.413z M145.383,18.854
	c1.34,0,2.553,0.396,3.639,1.189c1.085,0.793,1.94,1.978,2.563,3.554c0.623,1.577,0.935,3.507,0.935,5.792
	c0,2.341-0.326,4.319-0.977,5.933s-1.515,2.818-2.591,3.611s-2.266,1.189-3.568,1.189c-1.605,0-3.304-0.831-5.098-2.492V20.921
	C142.041,19.543,143.74,18.854,145.383,18.854L145.383,18.854z M147.479,17.324c0.812,0,1.666,0.212,2.563,0.637
	c0.896,0.425,1.742,1.09,2.535,1.997s1.449,2.148,1.968,3.724c0.519,1.577,0.779,3.422,0.779,5.537c0,1.756-0.222,3.342-0.666,4.758
	c-0.444,1.416-1.1,2.596-1.968,3.54c-0.869,0.944-1.964,1.662-3.285,2.152c1.265-1.038,2.256-2.312,2.974-3.823
	c0.717-1.51,1.076-3.663,1.076-6.457c0-3.625-0.727-6.433-2.181-8.425c-1.454-1.992-3.38-2.988-5.777-2.988h-0.68
	C145.779,17.542,146.667,17.324,147.479,17.324L147.479,17.324z"/>
<path fill="#32666B" d="M175.766,36.582c-0.982,0-2.011-0.179-3.087-0.538c-1.076-0.358-2.091-0.953-3.044-1.784
	c-0.954-0.831-1.728-1.926-2.322-3.285s-0.93-3.021-1.005-4.984h17.105c-0.17-1.34-0.401-2.487-0.694-3.441
	c-0.293-0.953-0.77-1.883-1.43-2.79c-0.906-1.246-2.129-2.223-3.667-2.931c-1.539-0.708-3.158-1.062-4.857-1.062
	c-1.681,0-3.262,0.354-4.744,1.062c-1.482,0.708-2.785,1.695-3.908,2.959c-1.124,1.265-2.001,2.729-2.634,4.39
	c-0.633,1.662-0.949,3.437-0.949,5.324c0,2.398,0.519,4.541,1.558,6.429c1.038,1.888,2.45,3.333,4.234,4.333
	s3.714,1.501,5.792,1.501c1.529,0,2.997-0.246,4.404-0.736c1.406-0.491,2.695-1.246,3.866-2.266c1.17-1.02,2.181-2.322,3.03-3.908
	l-1.133-0.878C180.316,35.714,178.145,36.582,175.766,36.582L175.766,36.582z M177.267,23.611c0-1.793-0.265-3.129-0.793-4.007
	c-0.529-0.878-1.397-1.59-2.605-2.138c1.907,0.34,3.266,1.015,4.078,2.025c0.812,1.01,1.246,2.573,1.303,4.687h-1.982V23.611z
	 M168.12,19.547c1-1.274,2.218-1.912,3.653-1.912c0.887,0,1.675,0.231,2.365,0.694c0.689,0.463,1.232,1.124,1.628,1.982
	c0.396,0.859,0.595,1.836,0.595,2.931v0.935h-9.884C166.571,22.365,167.119,20.822,168.12,19.547z M164.07,23.385
	c-0.623,1.586-0.935,3.38-0.935,5.381c0,3.153,0.939,5.711,2.818,7.675c1.878,1.964,4.224,2.945,7.038,2.945
	c1.661,0,3.091-0.231,4.291-0.694c1.199-0.462,2.374-1.062,3.526-1.798c-1.114,1.284-2.478,2.251-4.092,2.903
	s-3.224,0.977-4.829,0.977c-2.757,0-5.188-1.043-7.292-3.129c-2.105-2.086-3.158-4.772-3.158-8.057
	c0-4.531,1.765-8.194,5.296-10.988C165.58,20.204,164.693,21.799,164.07,23.385z"/>
<path fill="#32666B" d="M191.338,33.24c-2.077,0.774-3.682,1.728-4.814,2.86s-1.699,2.36-1.699,3.682
	c0,2.02,1.218,3.568,3.653,4.645c-1.794,0.113-3.158,0.642-4.092,1.586c-0.935,0.944-1.402,2.02-1.402,3.229
	c0,1.718,0.953,3.096,2.86,4.135c1.907,1.038,4.682,1.558,8.326,1.558c2.492,0,4.687-0.231,6.584-0.694
	c1.897-0.463,3.445-1.1,4.645-1.912c1.199-0.812,2.091-1.78,2.676-2.903c0.585-1.124,0.878-2.346,0.878-3.667
	c0-2.474-0.92-4.234-2.761-5.282s-4.612-1.572-8.312-1.572c-1.076,0-1.931,0.005-2.563,0.014c-0.633,0.01-1.345,0.024-2.138,0.042
	c-2.36,0-3.54-0.689-3.54-2.067c0-1.076,0.604-1.812,1.812-2.209c1.208-0.396,2.889-0.67,5.041-0.821
	c1.057-0.057,2.024-0.165,2.903-0.326c0.878-0.16,1.789-0.477,2.733-0.949c1.454-0.755,2.61-1.803,3.469-3.144
	c0.859-1.34,1.289-2.766,1.289-4.276c0-1.68-0.623-3.36-1.869-5.041c0.434-0.283,0.802-0.425,1.104-0.425
	c0.34,0,0.642,0.109,0.906,0.326c0.264,0.217,0.59,0.548,0.977,0.991c0.387,0.444,0.746,0.774,1.076,0.991
	c0.33,0.217,0.694,0.326,1.09,0.326c0.661,0,1.204-0.236,1.628-0.708c0.425-0.472,0.637-1.01,0.637-1.614
	c0-0.887-0.35-1.624-1.048-2.209c-0.699-0.585-1.586-0.878-2.662-0.878c-0.774,0-1.577,0.184-2.407,0.552
	c-0.831,0.368-1.596,0.883-2.294,1.543c-2.568-2.171-5.561-3.257-8.978-3.257c-3.153,0-5.692,0.864-7.618,2.591
	s-2.889,3.819-2.889,6.273C184.541,28.426,186.807,31.296,191.338,33.24L191.338,33.24z M202.694,25.056
	c0,3.757-1.548,6.155-4.645,7.193c1.907-1.643,2.86-4.182,2.86-7.618c0-1.888-0.279-3.417-0.835-4.588
	c-0.557-1.17-1.458-2.171-2.705-3.002C200.919,17.796,202.694,20.468,202.694,25.056L202.694,25.056z M198.829,30.167
	c-0.765,1.35-1.761,2.025-2.988,2.025c-1.359,0-2.44-0.698-3.243-2.096c-0.803-1.397-1.204-3.275-1.204-5.636
	c0-2.114,0.396-3.833,1.189-5.154c0.793-1.321,1.803-1.982,3.03-1.982c1.208,0,2.237,0.633,3.087,1.897
	c0.85,1.265,1.274,3.012,1.274,5.239C199.976,26.916,199.593,28.818,198.829,30.167z M188.959,20.27
	c-1.02,1.435-1.529,2.936-1.529,4.503c0,1.454,0.429,2.856,1.289,4.206c0.859,1.35,2.157,2.535,3.894,3.554
	c-2.398-0.623-4.187-1.643-5.367-3.059c-1.18-1.416-1.77-3.049-1.77-4.899c0-1.303,0.335-2.521,1.005-3.653
	c0.67-1.133,1.628-2.082,2.875-2.846s2.643-1.241,4.191-1.43C191.508,17.626,189.979,18.835,188.959,20.27z M187.869,37.049
	c-0.293,0.538-0.439,1.119-0.439,1.742c0,0.906,0.25,1.605,0.75,2.096c0.5,0.491,1.236,0.831,2.209,1.02
	c0.972,0.188,2.346,0.307,4.121,0.354c1.774,0.047,3.559,0.089,5.353,0.127c2.492,0.057,4.371,0.467,5.636,1.232
	c1.265,0.765,1.897,1.864,1.897,3.299c0,0.68-0.255,1.473-0.765,2.379c0.075-0.453,0.113-0.746,0.113-0.878
	c0-1.416-0.571-2.431-1.713-3.044c-1.143-0.614-2.436-0.963-3.88-1.048c-1.444-0.085-4.271-0.146-8.481-0.184
	c-2.096-0.019-3.771-0.43-5.027-1.232c-1.255-0.803-1.883-1.808-1.883-3.016c0-0.963,0.283-1.803,0.85-2.521
	c0.566-0.717,1.406-1.425,2.521-2.124C188.581,35.912,188.161,36.511,187.869,37.049z M190.035,52.441
	c-1.228-0.755-1.841-1.766-1.841-3.03c0-1.095,0.387-1.964,1.161-2.605c0.774-0.642,1.878-1.086,3.313-1.331
	c1.435-0.246,3.285-0.368,5.551-0.368c5.079,0,7.618,1.104,7.618,3.313c0,1-0.435,1.902-1.303,2.705
	c-0.869,0.802-2.101,1.411-3.696,1.827c-1.596,0.415-3.488,0.623-5.678,0.623C192.971,53.574,191.262,53.196,190.035,52.441z
	 M185.249,51.833c-0.888-0.784-1.331-1.667-1.331-2.648c0-1.152,0.514-2.096,1.543-2.832c1.029-0.736,2.525-1.189,4.489-1.359
	c-1.359,0.623-2.389,1.255-3.087,1.897c-0.699,0.642-1.048,1.444-1.048,2.407c0,1.68,1.104,3.105,3.313,4.276
	C187.43,53.196,186.136,52.616,185.249,51.833z M211.502,19.958c0,0.321-0.113,0.633-0.34,0.935
	c-0.227,0.302-0.557,0.453-0.991,0.453c-0.567,0-1.161-0.406-1.784-1.218c-0.831-0.925-1.492-1.388-1.982-1.388
	c-0.227,0-0.416,0.019-0.566,0.057c0.151-0.057,0.316-0.123,0.496-0.198c0.179-0.075,0.363-0.113,0.552-0.113
	c0.472,0,1.057,0.194,1.756,0.581c0.698,0.387,1.227,0.581,1.586,0.581c0.472,0,0.821-0.17,1.048-0.51
	C211.426,19.439,211.502,19.713,211.502,19.958L211.502,19.958z"/>
<path fill="#32666B" d="M219.908,41.765c1.85,0,3.516-0.359,4.999-1.076c1.482-0.717,2.643-1.689,3.483-2.917
	c0.84-1.227,1.26-2.567,1.26-4.021c0-1.246-0.331-2.397-0.991-3.455c-0.661-1.057-1.548-1.878-2.662-2.464
	c-1.775-0.981-3.842-2.001-6.202-3.059c-2.36-1.057-3.908-1.855-4.645-2.393s-1.104-1.27-1.104-2.195
	c0-0.717,0.297-1.374,0.892-1.968s1.345-0.892,2.251-0.892c1.454,0,2.931,0.576,4.432,1.728c1.501,1.152,3.016,2.86,4.545,5.126
	h1.388l-0.283-6.712c-1.473-0.547-2.813-0.967-4.021-1.26c-1.208-0.292-2.511-0.439-3.908-0.439c-2.757,0-4.947,0.708-6.57,2.124
	c-1.624,1.416-2.436,3.182-2.436,5.296c0,3.568,2.596,6.315,7.788,8.241c1.963,0.755,4.012,1.841,6.146,3.257
	c0.566,0.396,0.85,1.114,0.85,2.152c0,0.793-0.378,1.501-1.133,2.124c-0.755,0.623-1.614,0.935-2.577,0.935
	c-1.492,0-3.021-0.646-4.588-1.94c-1.567-1.293-3.068-3.214-4.503-5.763h-1.529v7.42C214.244,41.047,217.284,41.765,219.908,41.765
	L219.908,41.765z M213.933,37.545c0.566,0.642,1.435,1.369,2.605,2.181c-2.19-0.585-3.757-1.085-4.701-1.501v-3.54
	C212.667,35.95,213.366,36.903,213.933,37.545z M226.054,36.582c0-1.284-0.557-2.289-1.671-3.016
	c-1.114-0.727-2.936-1.661-5.466-2.804c-2.53-1.142-4.437-2.27-5.721-3.384c-1.284-1.114-1.926-2.567-1.926-4.361
	c0-0.868,0.146-1.6,0.439-2.195c0.292-0.595,0.684-1.194,1.175-1.798c-0.453,1.001-0.68,1.907-0.68,2.719
	c0,1.341,0.34,2.459,1.02,3.356c0.68,0.897,1.784,1.766,3.313,2.605c1.529,0.84,3.615,1.808,6.259,2.903
	c2.945,1.189,4.418,2.794,4.418,4.814c0,0.661-0.123,1.185-0.368,1.572c-0.246,0.387-0.623,0.817-1.133,1.289
	C225.94,37.621,226.054,37.054,226.054,36.582L226.054,36.582z M222.641,18.811c-0.84-0.651-1.968-1.222-3.384-1.713
	c1.34,0,2.36,0.095,3.059,0.283c0.698,0.189,1.671,0.538,2.917,1.048l0.255,3.257C224.43,20.421,223.481,19.462,222.641,18.811z"/>
</svg>
