<?xml version="1.0" encoding="utf-8"?>
<!-- Generator: Adobe Illustrator 16.0.0, SVG Export Plug-In . SVG Version: 6.00 Build 0)  -->
<!DOCTYPE svg PUBLIC "-//W3C//DTD SVG 1.1//EN" "http://www.w3.org/Graphics/SVG/1.1/DTD/svg11.dtd">
<svg version="1.1" id="Layer_1" xmlns="http://www.w3.org/2000/svg" xmlns:xlink="http://www.w3.org/1999/xlink" x="0px" y="0px"
	 width="105.959px" height="104.367px" viewBox="0 0 105.959 104.367" enable-background="new 0 0 105.959 104.367"
	 xml:space="preserve">
<g>
	<defs>
		<rect id="SVGID_1_" x="-244.97" y="-368.843" width="595.28" height="841.89"/>
	</defs>
	<clipPath id="SVGID_2_">
		<use xlink:href="#SVGID_1_"  overflow="visible"/>
	</clipPath>
	<g clip-path="url(#SVGID_2_)">
		<defs>
			<rect id="SVGID_3_" x="-244.97" y="-368.843" width="595.28" height="841.89"/>
		</defs>
		<clipPath id="SVGID_4_">
			<use xlink:href="#SVGID_3_"  overflow="visible"/>
		</clipPath>
		<g opacity="0.2" clip-path="url(#SVGID_4_)">
			<g>
				<defs>
					<rect id="SVGID_5_" width="105.959" height="104.367"/>
				</defs>
				<clipPath id="SVGID_6_">
					<use xlink:href="#SVGID_5_"  overflow="visible"/>
				</clipPath>
				<path clip-path="url(#SVGID_6_)" fill="#506971" d="M101.18,0c2.64,0,4.779,2.14,4.779,4.78v94.807
					c0,2.64-2.14,4.779-4.779,4.779H4.78c-2.64,0-4.78-2.14-4.78-4.779V4.78C0,2.14,2.14,0,4.78,0H101.18z"/>
			</g>
		</g>
		<path clip-path="url(#SVGID_4_)" fill="#E5BC05" d="M52.98,8.023c-24.405,0-44.189,19.771-44.189,44.16
			c0,24.389,19.784,44.159,44.189,44.159s44.188-19.771,44.188-44.159C97.168,27.794,77.385,8.023,52.98,8.023"/>
		<path clip-path="url(#SVGID_4_)" fill="#D8B206" d="M52.98,96.343c24.405,0,44.188-19.771,44.188-44.16
			c0-11.867-4.692-22.633-12.314-30.568L21.987,83.649C29.963,91.497,40.904,96.343,52.98,96.343"/>
		<path clip-path="url(#SVGID_4_)" fill="#FFFFFF" d="M60.347,44.016c2.529,2.558,2.507,6.682-0.051,9.211
			c-2.556,2.528-7.326,2.586-9.211-0.052c-2.091-2.926-2.506-6.681,0.052-9.21C53.695,41.436,57.819,41.459,60.347,44.016"/>
		<path clip-path="url(#SVGID_4_)" fill="#FFFFFF" d="M56.054,42.09l-1.064,0.029l-5.706-0.011l-6.958-0.61l-0.002,0.596
			c1.748-0.055,3.514,0.581,4.84,1.923c2.53,2.558,2.507,6.681-0.051,9.211c-1.33,1.316-3.084,1.935-4.818,1.871v0.041h13.083
			l0.642-12.912L56.054,42.09z"/>
		<path clip-path="url(#SVGID_4_)" fill="#FFFFFF" d="M47.159,40.175c-2.529-2.557-2.507-6.681,0.051-9.211
			c1.37-1.355,3.189-1.97,4.972-1.863v-0.046H34.329v0.039c1.587,0.066,3.155,0.702,4.36,1.921c2.53,2.558,2.507,6.681-0.051,9.211
			c-1.2,1.187-2.746,1.804-4.309,1.869v0.023h17.854C50.368,42.193,48.532,41.564,47.159,40.175"/>
		<path clip-path="url(#SVGID_4_)" fill="#FFFFFF" d="M69.654,31.015c2.529,2.558,2.507,6.681-0.051,9.211
			c-2.556,2.529-6.681,2.506-9.21-0.051s-2.449-6.623,0.051-9.211c1.098-1.137,2.552-1.464,4.033-1.581
			c0.239-0.019,0.39-0.329,0.633-0.32C66.753,29.119,68.428,29.775,69.654,31.015"/>
		<path clip-path="url(#SVGID_4_)" fill="#FFFFFF" d="M52.091,29.055v0.039c1.587,0.066,3.155,0.702,4.359,1.921
			c2.53,2.557,2.507,6.681-0.05,9.211c-1.2,1.187-2.747,1.827-4.31,1.892h12.928l0.091-13.063H52.091z"/>
		<path clip-path="url(#SVGID_4_)" fill="#FFFFFF" d="M60.419,17.947c2.528,2.564,2.475,6.768-0.083,9.304
			c-2.557,2.535-6.649,2.441-9.178-0.123c-2.529-2.562-2.507-6.696,0.051-9.232c1.278-1.268,2.873-1.784,4.54-1.775
			c0.243,0.001,0.562-0.095,0.806-0.066C57.969,16.221,59.34,16.852,60.419,17.947"/>
		<path clip-path="url(#SVGID_4_)" fill="#FFFFFF" d="M56.41,16.039H42.363v0.01c1.735-0.045,3.484,0.593,4.801,1.925
			c2.53,2.558,2.507,6.681-0.051,9.21c-1.338,1.324-3.106,1.942-4.849,1.87v0.012h13.825l0.683-12.951L56.41,16.039z"/>
		<path clip-path="url(#SVGID_4_)" fill="#FFFFFF" d="M18.083,67.728v-8.049h3.356c1.417,0,2.437,1.303,2.437,2.572
			c0,1.326-0.952,2.585-2.369,2.585h-2.403v2.892H18.083z M19.104,63.93h2.347c0.839,0,1.394-0.761,1.394-1.679
			c0-0.952-0.68-1.667-1.463-1.667h-2.278V63.93z"/>
		<path clip-path="url(#SVGID_4_)" fill="#FFFFFF" d="M25.124,67.728v-8.049h3.447c1.417,0,2.437,1.303,2.437,2.572
			c0,1.122-0.669,2.131-1.689,2.393l1.95,3.084h-1.156l-1.837-2.892h-2.131v2.892H25.124z M26.145,63.93h2.438
			c0.838,0,1.394-0.794,1.394-1.679c0-0.906-0.681-1.667-1.463-1.667h-2.369V63.93z"/>
		<polygon clip-path="url(#SVGID_4_)" fill="#FFFFFF" points="38.118,66.82 38.118,67.727 32.653,67.727 32.653,59.678 
			38.015,59.678 38.015,60.585 33.674,60.585 33.674,63.192 37.449,63.192 37.449,64.043 33.674,64.043 33.674,66.82 		"/>
		<polygon clip-path="url(#SVGID_4_)" fill="#FFFFFF" points="45.384,60.585 42.607,60.585 42.607,67.728 41.586,67.728 
			41.586,60.585 38.809,60.585 38.809,59.678 45.384,59.678 		"/>
		<polygon clip-path="url(#SVGID_4_)" fill="#FFFFFF" points="52.369,60.585 49.592,60.585 49.592,67.728 48.571,67.728 
			48.571,60.585 45.793,60.585 45.793,59.678 52.369,59.678 		"/>
		<polygon clip-path="url(#SVGID_4_)" fill="#FFFFFF" points="53.742,59.678 56.18,63.873 58.639,59.678 59.75,59.678 
			56.689,64.791 56.689,67.727 55.668,67.727 55.668,64.768 52.619,59.678 		"/>
		<path clip-path="url(#SVGID_4_)" fill="#FFFFFF" d="M60.76,67.728v-8.049h3.355c1.417,0,2.438,1.303,2.438,2.572
			c0,1.326-0.952,2.585-2.369,2.585h-2.403v2.892H60.76z M61.781,63.93h2.347c0.839,0,1.395-0.761,1.395-1.679
			c0-0.952-0.681-1.667-1.463-1.667h-2.278V63.93z"/>
		<polygon clip-path="url(#SVGID_4_)" fill="#FFFFFF" points="73.266,66.82 73.266,67.727 67.801,67.727 67.801,59.678 
			73.163,59.678 73.163,60.585 68.822,60.585 68.822,63.192 72.597,63.192 72.597,64.043 68.822,64.043 68.822,66.82 		"/>
		<path clip-path="url(#SVGID_4_)" fill="#FFFFFF" d="M80.419,66.639c-0.714,0.771-1.52,1.146-2.448,1.146
			c-2.132,0-3.753-2.029-3.753-4.104c0-2.166,1.598-4.059,3.753-4.059c1.552,0,2.551,0.714,3.072,1.758l-0.782,0.544
			c-0.477-0.93-1.327-1.384-2.313-1.384c-1.644,0-2.698,1.53-2.698,3.163c0,1.724,1.214,3.164,2.801,3.164
			c0.861,0,1.655-0.408,2.369-1.271v-1.111h-1.734v-0.771h2.597v4.013h-0.862V66.639z"/>
		<path clip-path="url(#SVGID_4_)" fill="#FFFFFF" d="M87.608,61.367c-0.374-0.419-1.225-0.84-2.188-0.84
			c-1.247,0-1.813,0.499-1.813,1.315c0,0.862,0.669,1.088,2.12,1.418c1.678,0.374,2.721,0.85,2.721,2.301
			c0,1.554-1.27,2.245-2.925,2.245c-1.235,0-2.369-0.396-3.276-1.134l0.487-0.862c0.487,0.512,1.587,1.077,2.812,1.077
			c1.146,0,1.814-0.419,1.814-1.224c0-0.907-0.828-1.18-2.324-1.542c-1.633-0.397-2.483-0.839-2.483-2.12
			c0-1.542,1.225-2.381,2.892-2.381c1.077,0,1.961,0.362,2.642,0.918L87.608,61.367z"/>
		<path clip-path="url(#SVGID_4_)" fill="#FFFFFF" d="M38.137,81.9h-4.862V71.837h5.387c1.418,0,2.297,1.304,2.297,2.564
			c0,0.979-0.511,1.928-1.447,2.339c1.149,0.34,1.871,1.247,1.871,2.566C41.383,80.993,39.909,81.9,38.137,81.9 M35.231,73.509
			v2.538h2.609c0.652,0,1.19-0.482,1.19-1.276c0-0.765-0.481-1.262-1.105-1.262H35.231z M38.237,77.592h-3.006v2.649h2.906
			c0.709,0,1.276-0.581,1.276-1.304C39.413,78.2,38.903,77.592,38.237,77.592"/>
		<polygon clip-path="url(#SVGID_4_)" fill="#FFFFFF" points="42.913,81.9 42.913,71.837 44.869,71.837 44.869,80.186 50,80.186 
			50,81.9 		"/>
		<path clip-path="url(#SVGID_4_)" fill="#FFFFFF" d="M50.283,76.868c0-2.68,2.041-5.104,4.806-5.104
			c2.849,0,4.749,2.594,4.749,5.132c0,2.665-2.014,5.074-4.792,5.074C52.197,81.971,50.283,79.449,50.283,76.868 M55.074,80.242
			c1.801,0,2.793-1.716,2.793-3.374c0-1.743-1.077-3.359-2.807-3.359c-1.801,0-2.807,1.701-2.807,3.359
			C52.253,78.611,53.302,80.242,55.074,80.242"/>
		<path clip-path="url(#SVGID_4_)" fill="#FFFFFF" d="M68.1,80.767c-0.794,0.821-1.659,1.205-2.68,1.205
			c-2.58,0-4.649-2.467-4.649-5.16c0-2.75,2.056-5.046,4.777-5.046c1.828,0,3.175,0.864,3.827,2.196l-1.46,1.077
			c-0.482-0.992-1.403-1.545-2.438-1.545c-1.645,0-2.735,1.561-2.735,3.374c0,1.899,1.205,3.374,2.849,3.374
			c0.922,0,1.758-0.454,2.51-1.375v-0.709h-2.027v-1.432h3.643V81.9H68.1V80.767z"/>
	</g>
</g>
</svg>
