<?xml version="1.0" encoding="utf-8"?>
<!-- Generator: Adobe Illustrator 16.0.0, SVG Export Plug-In . SVG Version: 6.00 Build 0)  -->
<!DOCTYPE svg PUBLIC "-//W3C//DTD SVG 1.1//EN" "http://www.w3.org/Graphics/SVG/1.1/DTD/svg11.dtd">
<svg version="1.1" id="Layer_1" xmlns="http://www.w3.org/2000/svg" xmlns:xlink="http://www.w3.org/1999/xlink" x="0px" y="0px"
	 width="105.96px" height="104.367px" viewBox="0 0 105.96 104.367" enable-background="new 0 0 105.96 104.367"
	 xml:space="preserve">
<g>
	<defs>
		<rect id="SVGID_1_" x="-400.97" y="-336.843" width="595.28" height="841.89"/>
	</defs>
	<clipPath id="SVGID_2_">
		<use xlink:href="#SVGID_1_"  overflow="visible"/>
	</clipPath>
	<g clip-path="url(#SVGID_2_)">
		<defs>
			<rect id="SVGID_3_" x="-400.97" y="-336.843" width="595.28" height="841.89"/>
		</defs>
		<clipPath id="SVGID_4_">
			<use xlink:href="#SVGID_3_"  overflow="visible"/>
		</clipPath>
		<g opacity="0.3" clip-path="url(#SVGID_4_)">
			<g>
				<defs>
					<rect id="SVGID_5_" x="-240.889" width="105.96" height="104.367"/>
				</defs>
				<clipPath id="SVGID_6_">
					<use xlink:href="#SVGID_5_"  overflow="visible"/>
				</clipPath>
				<path clip-path="url(#SVGID_6_)" fill="#D96653" d="M-139.708,0c2.64,0,4.78,2.14,4.78,4.78v94.807
					c0,2.64-2.14,4.779-4.78,4.779h-96.4c-2.64,0-4.78-2.14-4.78-4.779V4.78c0-2.64,2.14-4.78,4.78-4.78H-139.708z"/>
			</g>
		</g>
		<path clip-path="url(#SVGID_4_)" fill="#719072" d="M-187.614,8.196c-24.405,0-44.189,19.771-44.189,44.16
			c0,24.389,19.784,44.159,44.189,44.159c24.405,0,44.189-19.77,44.189-44.159C-143.425,27.967-163.209,8.196-187.614,8.196"/>
		<path clip-path="url(#SVGID_4_)" fill="#618665" d="M-187.614,96.515c24.405,0,44.189-19.771,44.189-44.16
			c0-11.867-4.693-22.633-12.315-30.568l-62.867,62.035C-210.631,91.669-199.69,96.515-187.614,96.515"/>
		<g opacity="0.2" clip-path="url(#SVGID_4_)">
			<g>
				<defs>
					<rect id="SVGID_7_" x="-120" width="105.959" height="104.367"/>
				</defs>
				<clipPath id="SVGID_8_">
					<use xlink:href="#SVGID_7_"  overflow="visible"/>
				</clipPath>
				<path clip-path="url(#SVGID_8_)" fill="#E2AF46" d="M-18.819,0c2.64,0,4.779,2.14,4.779,4.78v94.807
					c0,2.64-2.14,4.779-4.779,4.779h-96.4c-2.64,0-4.78-2.14-4.78-4.779V4.78c0-2.64,2.14-4.78,4.78-4.78H-18.819z"/>
			</g>
		</g>
		<path clip-path="url(#SVGID_4_)" fill="#FFFFFF" d="M-206.242,92.411c-0.048-0.021-0.001-0.105-0.001-0.159
			c-0.021-2.81,0.178-5.802,0.856-8.68c0.896-3.781,5.993-25.376,5.993-25.376s-1.488-2.974-1.488-7.369
			c0-6.902,4-12.056,8.982-12.056c4.236,0,6.282,3.182,6.282,6.992c0,4.258-2.716,10.628-4.113,16.527
			c-1.166,4.94,2.478,8.97,7.351,8.97c8.824,0,14.767-11.333,14.767-24.761c0-10.207-6.875-17.847-19.379-17.847
			c-14.127,0-22.928,10.536-22.928,22.303c0,4.058,1.197,6.92,3.071,9.135c0.861,1.018,0.981,1.427,0.669,2.595
			c-0.223,0.858-0.736,2.92-0.949,3.738c-0.31,1.179-1.266,1.601-2.332,1.165c-6.506-2.656-9.537-9.782-9.537-17.792
			c0-13.229,11.157-29.092,33.285-29.092c17.78,0,29.482,12.866,29.482,26.678c0,18.268-10.157,31.918-25.128,31.918
			c-5.028,0-9.757-2.718-11.377-5.805c0,0-2.704,10.729-3.277,12.802c-0.832,3.026-2.283,5.962-3.794,8.513
			C-199.807,94.811-202.512,94.133-206.242,92.411"/>
		<path clip-path="url(#SVGID_4_)" fill="#5492B3" d="M-67.02,8.023c-24.405,0-44.189,19.771-44.189,44.16
			c0,24.389,19.784,44.159,44.189,44.159s44.188-19.771,44.188-44.159C-22.831,27.794-42.614,8.023-67.02,8.023"/>
		<path clip-path="url(#SVGID_4_)" fill="#4A83A1" d="M-67.02,96.343c24.405,0,44.188-19.771,44.188-44.16
			c0-11.867-4.692-22.633-12.314-30.568L-98.013,83.65C-90.037,91.497-79.096,96.343-67.02,96.343"/>
		<path clip-path="url(#SVGID_4_)" fill="#FFFFFF" d="M-62.222,22.391c-14.586,3.187-14.401,14.211-14.401,14.211v6.077v8.214
			h-8.688v13.582h8.688l-0.062,31.288c2.737,0.529,5.561,0.64,8.451,0.64c3.191,0,6.301,0.642,9.3,0l0.062-31.927h13.202
			l1.285-13.582h-14.487v-8.214c0-10.896,14.844-5.539,14.844-5.539l1.993-13.757C-42.035,23.383-51.991,20.163-62.222,22.391"/>
		<g opacity="0.2" clip-path="url(#SVGID_4_)">
			<g>
				<defs>
					<rect id="SVGID_9_" width="105.96" height="104.367"/>
				</defs>
				<clipPath id="SVGID_10_">
					<use xlink:href="#SVGID_9_"  overflow="visible"/>
				</clipPath>
				<path clip-path="url(#SVGID_10_)" fill="#506971" d="M101.181,0c2.64,0,4.779,2.14,4.779,4.78v94.807
					c0,2.64-2.14,4.779-4.779,4.779H4.78c-2.64,0-4.78-2.14-4.78-4.779V4.78C0,2.14,2.141,0,4.78,0H101.181z"/>
			</g>
		</g>
		<path clip-path="url(#SVGID_4_)" fill="#E5BC05" d="M52.98,8.023c-24.405,0-44.189,19.771-44.189,44.16
			c0,24.389,19.784,44.159,44.189,44.159s44.188-19.771,44.188-44.159C97.169,27.794,77.386,8.023,52.98,8.023"/>
		<path clip-path="url(#SVGID_4_)" fill="#D8B206" d="M52.98,96.343c24.405,0,44.188-19.771,44.188-44.16
			c0-11.867-4.692-22.633-12.314-30.568L21.987,83.65C29.963,91.497,40.904,96.343,52.98,96.343"/>
		<g clip-path="url(#SVGID_4_)">
			<g opacity="0.5">
				<g>
					<defs>
						<rect id="SVGID_11_" x="-361.851" width="105.96" height="104.367"/>
					</defs>
					<clipPath id="SVGID_12_">
						<use xlink:href="#SVGID_11_"  overflow="visible"/>
					</clipPath>
					<path clip-path="url(#SVGID_12_)" fill="#719072" d="M-260.671,0c2.64,0,4.78,2.14,4.78,4.78v94.807
						c0,2.64-2.14,4.779-4.78,4.779h-96.4c-2.64,0-4.78-2.14-4.78-4.779V4.78c0-2.64,2.14-4.78,4.78-4.78H-260.671z"/>
				</g>
			</g>
			<path fill="#D96653" d="M-265.122,52.355c0-24.362-19.749-44.112-44.111-44.112c-24.363,0-44.113,19.75-44.113,44.112
				c0,24.363,19.75,44.112,44.113,44.112C-284.871,96.468-265.122,76.719-265.122,52.355"/>
			<path fill="#C55D4C" d="M-309.233,96.468c24.362,0,44.112-19.75,44.112-44.112c0-11.745-4.599-22.408-12.081-30.313L-339.949,84
				C-332.006,91.713-321.178,96.468-309.233,96.468"/>
			<path fill="#FFFFFF" d="M-290.45,26.867h-37.559c-3.774,0-6.823,3.018-6.823,6.736v37.503c0,3.72,3.049,6.739,6.823,6.739h37.559
				c3.768,0,6.815-3.019,6.815-6.739V33.603C-283.635,29.885-286.682,26.867-290.45,26.867 M-309.204,42.871
				c5.297,0,9.601,4.255,9.601,9.485s-4.304,9.482-9.601,9.482c-5.295,0-9.604-4.252-9.604-9.482S-314.499,42.871-309.204,42.871
				 M-289.133,69.767c0,1.242-1.025,2.246-2.277,2.246h-35.641c-1.255,0-2.272-1.004-2.272-2.246v-20.88
				c0.093,0.01,0.183,0.026,0.276,0.026h3.79c-0.244,1.111-0.377,2.261-0.377,3.443c0,8.942,7.372,16.219,16.43,16.219
				c9.063,0,16.43-7.277,16.43-16.219c0-1.182-0.133-2.332-0.377-3.443h4.018V69.767z M-288.86,41.288
				c0,1.242-1.014,2.248-2.275,2.248h-6.318c-1.255,0-2.272-1.006-2.272-2.248v-6.239c0-1.239,1.017-2.245,2.272-2.245h6.318
				c1.261,0,2.275,1.006,2.275,2.245V41.288z"/>
		</g>
		<path clip-path="url(#SVGID_4_)" fill="#FFFFFF" d="M60.348,44.016c2.529,2.558,2.507,6.682-0.051,9.211
			c-2.556,2.529-7.326,2.586-9.211-0.051c-2.091-2.926-2.506-6.681,0.052-9.211C53.695,41.436,57.819,41.459,60.348,44.016"/>
		<path clip-path="url(#SVGID_4_)" fill="#FFFFFF" d="M56.055,42.09l-1.064,0.029l-5.706-0.011l-6.958-0.61l-0.002,0.596
			c1.748-0.055,3.514,0.581,4.84,1.923c2.53,2.558,2.507,6.681-0.051,9.211c-1.33,1.316-3.084,1.934-4.818,1.871v0.041h13.083
			l0.642-12.912L56.055,42.09z"/>
		<path clip-path="url(#SVGID_4_)" fill="#FFFFFF" d="M47.16,40.175c-2.529-2.557-2.507-6.681,0.051-9.211
			c1.37-1.355,3.188-1.97,4.972-1.863v-0.046H34.329v0.039c1.587,0.066,3.154,0.702,4.359,1.921c2.53,2.558,2.508,6.681-0.051,9.211
			c-1.2,1.187-2.746,1.804-4.309,1.869v0.023h17.854C50.369,42.193,48.533,41.564,47.16,40.175"/>
		<path clip-path="url(#SVGID_4_)" fill="#FFFFFF" d="M69.654,31.015c2.529,2.558,2.507,6.681-0.051,9.211
			c-2.556,2.529-6.681,2.506-9.21-0.051s-2.449-6.623,0.051-9.211c1.098-1.137,2.552-1.464,4.033-1.581
			c0.239-0.019,0.39-0.329,0.633-0.32C66.754,29.119,68.429,29.775,69.654,31.015"/>
		<path clip-path="url(#SVGID_4_)" fill="#FFFFFF" d="M52.092,29.055v0.039c1.587,0.066,3.155,0.702,4.359,1.921
			c2.53,2.557,2.507,6.681-0.05,9.211c-1.2,1.187-2.747,1.827-4.31,1.892H65.02l0.091-13.063H52.092z"/>
		<path clip-path="url(#SVGID_4_)" fill="#FFFFFF" d="M60.42,17.947c2.528,2.564,2.475,6.768-0.083,9.304
			c-2.557,2.535-6.649,2.441-9.179-0.123c-2.528-2.562-2.507-6.696,0.052-9.232c1.277-1.268,2.872-1.784,4.539-1.775
			c0.243,0.001,0.562-0.095,0.806-0.066C57.97,16.221,59.341,16.852,60.42,17.947"/>
		<path clip-path="url(#SVGID_4_)" fill="#FFFFFF" d="M56.41,16.039H42.363v0.01c1.735-0.045,3.483,0.593,4.801,1.925
			c2.53,2.558,2.507,6.681-0.051,9.21c-1.338,1.324-3.106,1.942-4.849,1.87v0.012h13.824l0.683-12.951L56.41,16.039z"/>
	</g>
	<g clip-path="url(#SVGID_2_)">
		<text transform="matrix(1 0 0 1 17.1201 67.7275)" fill="#FFFFFF" font-family="'Raleway-Medium'" font-size="11.3386">PRETTYPEGS</text>
	</g>
	<g clip-path="url(#SVGID_2_)">
		<text transform="matrix(1 0 0 1 32.2266 81.9009)"><tspan x="0" y="0" fill="#FFFFFF" font-family="'Raleway-Bold'" font-size="14.1732">B</tspan><tspan x="9.638" y="0" fill="#FFFFFF" font-family="'Raleway-Bold'" font-size="14.1732">L</tspan><tspan x="17.603" y="0" fill="#FFFFFF" font-family="'Raleway-Bold'" font-size="14.1732">OG </tspan></text>
	</g>
</g>
</svg>
